<svg xmlns="http://www.w3.org/2000/svg" width="2522" height="1350" viewBox="0 0 2522 1350"><path fill="#6b4a42" d="M1236 120c2.46.84 3.7 1.39 4.88 3.75l.54 2.12.66 2.4.67 2.6c2.77 9.96 6.4 19.38 10.35 28.92 1.26 3.09 2.42 6.2 3.59 9.34 1.72 4.5 3.64 8.79 5.86 13.06q1.74 3.37 3.4 6.78l1.06 2.13 2.05 4.2c2.04 4.12 4.12 8.05 6.94 11.7h3l1-2.87c2.27-5.35 6.03-9.94 10-14.13h2v-2c9.2-8.73 21.51-14.37 32.9-19.64 10.26-4.78 19.93-10.21 29.01-17.01 2.16-1.4 3.52-2.2 6.09-2.35 3.14 1.51 3.9 2.75 5.17 6.01l1.02 3.68c3.7 12.25 10.65 22.81 17.81 33.31 8.16 12.15 14.46 27.2 11.6 42.07-1.05 4.68-2.3 9.3-3.6 13.93a146 146 0 0 0 16.63-5c13.97-5.02 13.97-5.02 20.87-6.31a372 372 0 0 0 15.94-3.43c19.12-4.5 38.86-8.92 58.56-9.26l3.7-.12c6.62-.13 6.62-.13 9.3.12l2 2c-.19 4.66-2.32 6.78-5.5 10-15.8 16.62-27.41 38.63-32.5 61 3.7-1.7 7.01-3.63 10.38-5.94 14.12-9.53 32.54-15.37 49.62-16.06l3.2-.16c13.59-.34 26.53 2.15 39.72 5.16 8.82 2.01 16.98 3.82 26.08 3l7.63-.62 3.53-.36 2.84-.02 2 2c-.28 5.3-1.46 9.85-3.28 14.82-1.58 4.78-1.86 9.28-1.93 14.29l-.08 4.2-.04 2.2c-.25 12.38-.6 24.43-3.67 36.49l-.87 3.5c-3.87 13.9-10.96 24.73-22.13 33.88-2.97 2.6-3.39 3.03-4 6.62l2.06.23c8.57 1.16 16.1 3.8 24.07 7.02q2.48.99 5 1.94c17.09 6.69 31.45 17.11 45.54 28.68q7.39 6.02 15.02 11.75A431 431 0 0 1 1703 467l6.5 5.56 1.62 1.39a176 176 0 0 0 9.91 7.77c8 5.88 15.87 13.03 19.97 22.28-1.12 2-1.12 2-3 4-4 .3-7.2-.2-11-1.37-17.18-4.5-35.69-4-53.31-3.94h-3.23c-15.7.01-30.97.6-46.46 3.31 3.37 3.77 7.13 5.98 11.44 8.5 8.17 4.96 14.82 10.77 21.56 17.5l1.94 1.92q5.76 5.7 11.47 11.47l4.27 4.28c12.4 12.45 22.53 26.39 31.29 41.57 1.63 2.78 3.37 5.48 5.1 8.2 3.27 5.3 6.12 10.73 8.85 16.32q3.2 6.53 6.64 12.91c10.52 19.53 10.52 19.53 9.44 28.33-1.06 2.06-1.06 2.06-3 3-5.07-.41-8.87-1.71-13.44-3.87-27.1-11.49-61.5-6.56-88.5 2.62l-3.14 1.06A175 175 0 0 0 1604 670l-2 1.03q-8.65 4.51-17.21 9.17c-8.78 4.74-17.46 9.22-26.79 12.8l-2.06.82c-24.63 9.66-52.84 13.21-78.61 5.7-2.33-.52-2.33-.52-4.33.48l1.38 4.63.82 2.78q.9 2.89 1.99 5.72c1.06 3.75.94 6.97.81 10.87-3.5 1.23-4.75 1.12-8.16-.51q-1.74-1.08-3.46-2.18c-15.51-9.4-30.3-11.3-47.82-7.06a550 550 0 0 0-21.36 5.84c-20.5 5.83-43.24 7.35-64.2 2.91l-4.58-.85c-14.04-2.66-26.51-6.37-37.42-16.15l-1-3c-4.84 1.37-7.1 4.13-9.94 8.06l-1.32 1.78q-1.88 2.56-3.74 5.16l-1.77 2.44c-8.13 11.67-12.4 22.66-12.71 36.84-.17 4.39-.93 7.16-3.52 10.72-2.65.03-2.65.03-6-1-2.28-2.55-3.87-5.47-5.56-8.44l-3.15-5.2-1.63-2.7c-6.29-10.08-13.43-19.77-21.6-28.4-2.98-3.26-5.6-6.78-8.24-10.33-1.96-2.08-3.02-2.58-5.82-2.93l.18-3.04c-.2-4.29-1.33-7.49-3.06-11.34-5.58-13.26-6.72-26.12-5.43-40.43l.28-3.16c1.3-13.41 4.47-27.12 11.68-38.68C1210 610 1210 610 1210 607c-3.47.6-6.5 1.54-9.75 2.88-6.88 2.55-13.86 3.6-21.07 4.75q-3.14.54-6.27 1.22c-16.77 3.57-36.16 3.66-52.72-1.48-10.86-3.19-19.56-2.03-29.36 3.22q-2.94 1.66-5.83 3.41l-3.33 2c-6.84 4.36-12.82 9.4-18.67 15l-2.69 2.5c-18.65 20.16-23.17 47.43-28.31 73.5l2.34-.66c13.43-3.58 20.8-2 33 4.5 6.9 3.62 13.73 6.38 21.22 8.53l2.47.73c13.09 3.57 26.2 4.23 39.68 4.16q3.72-.01 7.46.01c23.62.03 40.44-7.66 60.7-19.15C1201 711 1201 711 1204 710c-1.04 7.5-6.62 12.04-12.25 16.69-16.1 11.97-36.75 14.7-56.25 14.5h-3.68c-12.65-.07-24.56-1.02-36.88-3.94l-3.28-.73a100 100 0 0 1-29.1-11.7c-11.87-7.07-11.87-7.07-19.56-5.82-2.52 1.13-4.66 2.5-7 4h-2c-1.97 3.6-2.7 6.98-3.44 10.98C1030 736 1030 736 1028 738c-2.93-.37-3.86-.86-6-3a43 43 0 0 1 .83-12.39l.55-2.64.62-2.97.7-3.35q1.13-5.49 2.3-10.96l.79-3.79.77-3.64.7-3.28c.74-2.98.74-2.98 1.83-5.62.91-2.36.91-2.36.91-6.36-3.08 1.38-5.24 3-7.69 5.31-20.62 18.17-52.74 15.27-78.31 13.69a187 187 0 0 1-16-2l-4.35-.62A188 188 0 0 1 895 689l-2-.63a230 230 0 0 1-21.71-8q-3.74-1.56-7.54-3a230 230 0 0 1-24.32-10.67c-20.23-10-43.3-17.75-65.74-11.08-8.28 3.09-15.06 7.89-20.44 14.9C752 672 752 672 749 674c-2.69-.37-2.69-.37-5-1-1.82-5.47-.52-11.33 0-17l.2-3.34c1.65-18.71 9.7-37.38 18.8-53.66l1.38-2.56c7.74-13.69 17.85-26.21 28.28-37.93q1.91-2.16 3.8-4.37l2.16-2.51 1.86-2.15C802 548 802 548 804 548l2-4h2l.74-1.76c2.4-4.28 6.53-7.13 10.26-10.24l1.88-1.57c12.18-9.63 26.68-16.42 41.56-20.53C865 509 865 509 866 507a213 213 0 0 0-31.73-2.27h-13.33q-5.7.02-11.41 0H796.4c-22.47-.06-44.54 3.02-61.11 19.32A20 20 0 0 1 728 528l-2-2c.3-4.25 1.27-6.93 3.81-10.31l1.9-2.6L734 510l4.33-6.16c16.76-23.95 34.46-45.86 57.67-63.84l1.68-1.32c10.14-7.99 20.75-14.8 31.9-21.27q3.79-2.21 7.51-4.5c4.26-2.56 8.58-4.9 13.03-7.1l1.98-1c3.93-1.95 7.9-3.62 12.02-5.12 2.67-.98 5.27-2.12 7.88-3.25a75 75 0 0 1 14-4.44 33 33 0 0 0-2.5-8.5c-1.95-4.55-2.6-8.52-2.68-13.45l-.07-2.82-.1-5.77c-.52-17.77-12.01-29.57-23.16-42.17q-2.1-2.39-4.18-4.79l-2.45-2.78c-2.1-3.06-2.8-5.02-2.86-8.72.96-1.8.96-1.8 3-3 2.57-.5 4.97-.83 7.56-1.06l4.37-.49 2.14-.23c12.25-1.4 23.6-5.64 34.28-11.74 19.58-10.93 41.9-14.09 63.76-8.31q2.97.86 5.89 1.83l1.95.63c13.87 4.67 27.1 12.52 37.05 23.37v2h4c-10.36-27.93-10.36-27.93-17-40.16a428 428 0 0 1-3.07-5.8C986.52 249.9 980.17 239.17 972 231c-.12-2.5-.12-2.5 0-5l1-1c3.56.28 6.37.66 9.53 2.36 4.77 2.26 9.68 3.42 14.78 4.7l3.02.78c16.44 4.2 16.44 4.2 22.6 4.72 2.43.21 3.89.35 6.07 1.44q2.73.34 5.47.58c16.7 1.58 32.25 3.84 47.68 10.72 1.85.7 1.85.7 4.85.7l-.1-3.8c-.28-13.64.3-22.51 9.26-33.36C1098 212 1098 212 1100 212l.69-1.56c1.31-2.44 1.31-2.44 3.62-5.19 5.83-8.02 9.28-21.39 8.69-31.25a124 124 0 0 0-2.6-10.25c-.4-2.75-.4-2.75.82-4.64 2.88-1.8 5.63-.81 8.78-.11l2 .47c6.55 1.47 13.08 2 19.75 2.47 17.79 1.26 34.16 2.98 48.25 15.06l2.17 1.8c5.7 5.17 8.75 11.21 11.83 18.2 3-1 3-1 4.28-3.05 2.2-4.85 3.91-9.4 4.9-14.64 1.63-7.81 4.85-14.9 7.98-22.21 4.79-11.23 9.08-22.6 12.2-34.41.64-1.69.64-1.69 2.64-2.69m-116 46-1 1q.01 2.3.13 4.63c.12 16.07-4.87 30.14-15.13 42.37a299 299 0 0 1-5.31 5.25c-7.68 7.44-8.8 14.83-9 25.38l-.12 3.9c.43 3.47.43 3.47 2.08 5.73a57 57 0 0 0 8.22 4.99l3.5 1.84 1.82.95c15.43 8.15 29.1 18.21 42.81 28.96l2.75 2.1c2.25 1.9 2.25 1.9 4.25 4.9 2.35-.2 2.35-.2 5-1 1.34-2.07 1.34-2.07 2.36-4.83l1.18-3.08 1.21-3.34 2.63-6.88 1.32-3.5q2.85-7.34 5.99-14.56l1.12-2.61A358 358 0 0 1 1186 237l3.5-7.12c2.27-4.58 4.71-8.96 7.38-13.32 4.56-7.83 4.56-7.83 4.12-12.56-3.27-7.65-8.98-14.34-15-20h-2v-2c-1.62-1.37-1.62-1.37-3.87-2.87l-2.19-1.5c-8.55-4.74-16.85-6.54-26.5-7.75l-3.72-.5q-5.36-.7-10.72-1.38l-5.57-.73-4.62-.58-2.1-.27q-2.36-.25-4.71-.42m115-25q-5.08 12.12-10 24.31l-1.34 3.32a217 217 0 0 0-6.16 17.25c-2.67 8.29-6.8 15.66-10.97 23.28-2.97 5.51-5.84 11.09-8.72 16.65l-1.72 3.32c-6.52 12.57-12.82 25.17-18.4 38.18l-.84 1.94a1153 1153 0 0 0-14.77 36.01q-1.5 3.8-3.04 7.59c-13.66 33.88-18.6 67.7-11.65 103.9q.75 4.04 1.34 8.13c6 39 20.87 71.36 45.27 102.12l1.5 1.9c19.28 24.38 19.28 24.38 31.01 33.67 1.72 1.65 2.55 3.26 3.49 5.43h-3v-2a89 89 0 0 0-5.31-3.44c-3.29-1.99-6-3.85-8.69-6.56h-2l-2-4h-2l-.8-1.8a19 19 0 0 0-4.26-5.26c-4.76-4.63-8.82-9.75-12.94-14.94l-2.44-3.04c-6.13-7.69-11.4-15.77-16.48-24.19q-1.38-2.27-2.83-4.52c-12.27-19.45-18.5-43.72-22.25-66.25l-.64-3.79c-6.3-37.53-6.93-71.62 6.78-107.8l1.16-3.11 1.07-2.74c.72-2.94.5-4.69-.37-7.56-4.24-6.31-10.07-10.77-16.25-15.06a99 99 0 0 1-7.12-5.63c-12.27-9.9-26.5-17.74-40.75-24.42q-2.88-1.37-5.74-2.79l-7.15-3.46c-10.94-4.73-22.1-6.63-33.8-8.14A245 245 0 0 1 1009 241l-2.56-.7q-4.58-1.26-9.13-2.57A34 34 0 0 0 988 237c.54 3.54 1.31 5.81 3.44 8.69 8.45 12.23 14.91 25.6 20.56 39.31l1.14 2.62c2.14 5.04 3.83 10.21 5.42 15.44l.6 1.91c3.94 13.34 5.43 27.43 6.9 41.22l.26 2.36a608 608 0 0 1 2.74 37.14c.98 20.67 2.97 40.79 7.25 61.06l.42 2A108 108 0 0 0 1052 486l1.55 2.6c4.73 7.82 10.42 14.58 16.45 21.4l2.53 2.87A140 140 0 0 0 1105 540l2.36 1.49c31.6 19.64 74.75 33.33 111.64 36.51l-1 2c-45.13-.83-97.31-16.88-133-45l-2.9-2.21c-5.13-4.03-9.38-7.88-12.98-13.36L1068 518h-2l-.73-1.69c-1.55-2.82-3.5-4.91-5.64-7.31-4.59-5.3-8.29-11-11.88-17l-1.46-2.44c-6.12-10.43-11.02-20.47-13.91-32.25l-.9-3.52c-2.88-11.83-4.85-23.73-6.48-35.79l-.34-2.37c-1.36-9.56-1.8-19.04-2.04-28.7a548 548 0 0 0-2.5-37.62l-.24-2.69c-2.33-25.16-2.33-25.16-10.32-33.12l-1.44-1.55c-1.99-2.06-3.76-3.77-6.34-5.04-2.36-1.2-2.67-2.55-3.78-4.91-12.01-13.3-32.18-20.06-49.73-21.17-17.77-.7-30.59 1.94-46.24 10.12-13.36 6.92-26.46 11.7-41.48 13.66C858 305 858 305 856 306c.53 4.11 2.7 6.13 5.5 9.06l2.73 2.93 1.4 1.5c13.36 14.65 20.7 27.55 20.25 47.63-.07 7.89 1.94 14.78 7.12 20.88 3.68 1.13 6.4.94 10.13.13 16.72-3.3 33.39-2.35 50.21-.43q2.58.3 5.15.54c16.56 1.65 41.08 5.85 52.51 19.07l1 1.69-2.32-1.32C994.5 399.54 977.9 395.74 961 393l-2.66-.52a95 95 0 0 0-12.17-.76l-2.51-.06-10.6-.21-7.76-.17-2.43-.04c-5.64-.13-5.64-.13-7.87-1.24-11.22-1.39-21.29 2.79-30.8 8.3a136 136 0 0 1-12.39 5.57 301 301 0 0 0-28.24 13.4c-10.68 5.67-20.8 11.6-30.57 18.73l-3.44 2.4A257 257 0 0 0 786 457l-1.73 1.52a782 782 0 0 0-6.66 5.95A91 91 0 0 0 774 468v2h-2a90 90 0 0 0-4.06 4.81l-2.44 3.06-1.26 1.59c-1.88 2.33-3.82 4.62-5.74 6.92q-5.02 6.15-9.62 12.62l-2.32 3.25L745 505l1 3 2.65-.99c17.67-6.28 35.73-8.13 54.42-8.25l3.73-.03 13.92-.05c24.62-.05 48.02 1.36 72.14 6.64 3.64.79 7.28 1.43 10.95 2.06 27.44 4.99 51.33 17.62 75.05 31.8a713 713 0 0 0 22.04 12.55q4.8 2.65 9.51 5.4c12.65 7.35 25.88 13.51 39.08 19.8q8.55 4.06 17.01 8.32c25.97 13.06 52.14 23.1 81.5 24.75l2.6.16c7.94.27 15.55-1.23 23.3-2.75q2.88-.55 5.79-1.03c8.65-1.53 16.72-4.02 25-6.96A64 64 0 0 1 1219 596l2-1c-.67 3.92-2.58 6.84-4.56 10.25-3.76 6.76-6.42 13.74-8.88 21.06l-1.03 3.04c-5.47 16.8-7.45 42.95-.3 59.48 1.47 2.81 3.07 5.49 4.77 8.17l1.74 2.85c7.5 12.08 7.5 12.08 11.26 16.15h2l.72 1.67c1.58 2.88 3.56 5.1 5.72 7.58 4.8 5.56 8.89 11.47 12.8 17.67 1.32 2 1.32 2 3.76 5.08h4q1.5-4.39 2.86-8.82c4.75-15.28 13.85-26.96 23.64-39.34 4.13-5.31 7.73-10.69 10.94-16.59l1-1.82c4.23-8.11 5.07-16.42 5.56-25.43l.2-2.62c.73-16.5-5.64-38.8-16.7-51.03a87 87 0 0 0-3.5-3.35l1-2 2.63 1.31c5.22 2.23 10.73 3.14 16.28 4.26 3.9.8 7.77 1.68 11.65 2.55l4.5 1.01 1.94.44 2 .43 2.28.54c21.07 3.57 45.03.5 65.72-3.54l2.96-.55c33.3-6.28 67.66-17.69 96.23-36.28q3.16-2.04 6.37-4.02c21.95-13.7 21.95-13.7 30.05-20.26a38 38 0 0 1 6.33-4.08 164 164 0 0 0 11.93-7.25c15.84-10.28 32.94-18.43 51.13-23.56l3.93-1.16c41.61-12.1 83.23-11.62 126.07-9.84 0-4 0-4-2.35-6.41a181 181 0 0 0-3.28-2.65l-1.76-1.45a810 810 0 0 0-14.38-11.36c-4-3.12-7.88-6.33-11.73-9.63a407 407 0 0 0-15.06-12.23 381 381 0 0 1-9.35-7.5A242 242 0 0 0 1635 426l-2.68-1.67c-40.17-23.34-97.9-32.8-143.24-21.92-9.94 2.83-21.35 7.57-28.08 15.59-.91 3.03-.91 3.03-1.5 6.57l-.68 3.94-.34 2.07C1454.88 452 1448.3 468.4 1437 487l-2.02 3.4c-11.72 19.16-28.45 35.91-46.34 49.36q-2.2 1.66-4.38 3.36c-31.2 23.57-67.75 33.4-106.26 35.88l-3.06.2q-7.46.5-14.94.8c1-3 1-3 2.73-4.12 2.55-.99 4.9-1.46 7.6-1.88l3.15-.5 3.33-.5 3.43-.54q8.8-1.37 17.63-2.4c8.94-1.15 17.5-3.52 26.13-6.06l2.34-.69a159 159 0 0 0 29.92-12.38q2.33-1.24 4.69-2.42c23.13-11.96 44.27-30.94 60.05-51.51l2.05-2.64a166 166 0 0 0 12.94-20.53q1.52-2.75 3.12-5.46c9.78-17.08 12.27-35.36 15.26-54.57q.82-4.87 1.8-9.7c1.6-8.1 2.5-16.12 3.1-24.35 1.73-23 5.23-45.29 10.95-67.65q1.18-4.71 2.29-9.44c6.05-25.39 6.05-25.39 12.18-36.82 1.34-2.91 1.58-4.13 1-7.21L1485 255l2.29.28c2.71-.28 2.71-.28 4.48-2.15l1.6-2.57A187 187 0 0 1 1504 236l-2-4a455 455 0 0 0-41.87 5.63l-2.95.52c-37.47 6.73-72.84 16.4-102.18 41.85l-1.59 1.36A132 132 0 0 0 1332 305c0-10.26 11.87-19.84 18.55-26.57L1353 276l2-2.03c6.27-6 13.16-10.43 20.58-14.9l2.42-1.47 2.19-1.3c6.14-4.4 6.25-14.92 7.42-21.84 3.2-20.35-7.77-35.96-18.44-52.26-3.62-5.7-5.93-11.52-8-17.93-1.68-4.96-1.68-4.96-4.03-6.43-3.06.23-4.7 1.48-7.2 3.22A142 142 0 0 1 1326 174c-16.72 7.46-36.87 17.06-46 34-1.15 4.59-1.64 7.45.63 11.66q1.22 1.94 2.5 3.84l2.78 4.48 1.52 2.43c11.97 19.7 21.42 40.4 29.33 62 2.08 5.64 4.3 11.13 6.93 16.53 3.77 7.82 6.62 15.81 9.31 24.06l.78 2.35C1345.9 372.27 1348.69 413 1340 451a409 409 0 0 0-.94 5.94c-1.22 7.47-3.1 14.76-5.06 22.06l-.56 2.1c-4.6 17.06-10.36 32-21.44 45.9l-1.88 2.4c-4.13 5-8.91 8.77-14.12 12.6l-2.57 1.98a467 467 0 0 1-19.12 13.77l-2.37 1.64c-14.7 10.05-14.7 10.05-21.94 10.61 1.37-3.16 1.99-4 5-6l-.44-1.75-.56-2.25-.7-1.87c-.42-2.99.62-4 2.39-6.38a54 54 0 0 0 5.22-8.58c2-4.1 4.36-7.85 6.84-11.67a214 214 0 0 0 12.27-22.48q2.03-4.15 4.13-8.27a1262 1262 0 0 0 6.25-12.57c23.15-48.44 18.97-112.41 1.6-162.18l-1.5-4.62a590 590 0 0 0-35.4-84.13q-3.03-5.96-5.68-12.1l-1.34-3.05-2.58-6-1.2-2.75-1.06-2.47c-1.24-1.88-1.24-1.88-3.38-2.65L1238 208l-.81 2.06a216 216 0 0 1-7.63 16.88c-8.74 17.25-17.24 34.67-24.97 52.41a388 388 0 0 1-4.15 9.15 309 309 0 0 0-13.19 34.94l-.85 2.63c-4.58 14.97-5.9 30.2-5.8 45.78q.03 3.87-.01 7.75c-.02 16.8 2.47 32.98 6.54 49.27l.9 3.66c5.95 23.78 12.64 47.55 23.9 69.4a352 352 0 0 1 6.07 12.57c5.7 12.17 11.58 24.1 18.53 35.6 1.47 2.9 1.47 2.9 1.47 6.9-1.73-.12-1.73-.12-4-1-1.6-2-2.92-3.89-4.25-6.06l-1.19-1.9a203 203 0 0 1-9.47-17.8 302 302 0 0 0-5.7-11.01c-8.66-16.12-16.33-32.51-21.7-50.02q-1.06-3.37-2.17-6.7c-16.16-49.01-22.57-102.09-4.52-151.51l1.13-3.12c4.4-11.94 8.91-23.65 14.86-34.9 2.25-4.4 4.33-8.9 6.45-13.36 11.94-25.03 11.94-25.03 17.12-33.62 3.53-5.89 6.2-12.03 8.86-18.34 1.42-3.28 2.94-6.47 4.58-9.66h2l1.7 3.5c2.15 4.3 4.57 8.4 7.05 12.5 3.7 6.21 7.11 12.5 10.29 19q2.97 6.08 6.21 12.05c10.44 19.28 18.7 39.58 26.75 59.95l1.07 2.68c21.72 54.83 28.82 125.42 5.04 180.49A397 397 0 0 1 1287 511l-1.48 2.88a287 287 0 0 1-9.58 16.43l-1.25 2.03a69 69 0 0 1-6.29 8.75 45 45 0 0 0-5.78 9.1l-1.58 3.1C1260 556 1260 556 1261 559l5.5-3.37 3.1-1.9 2.4-1.73v-2l1.58-.7a82 82 0 0 0 9.17-5.99l1.88-1.34c4.18-3.02 8.13-6.2 11.92-9.7C1298 531 1298 531 1300 530v-2h2c1.67-1.92 3.22-3.84 4.75-5.87l1.27-1.63c6.84-8.98 11.36-18.19 14.98-28.87l.65-1.9c4.63-13.67 7.87-27.51 10.35-41.73l.63-3.6c8.13-47.71 1.27-93.8-19.02-137.63a337 337 0 0 1-7.6-18.34c-6.58-16.75-13.68-33-22.87-48.51q-3.4-5.78-6.77-11.6l-1.44-2.5c-3.4-5.89-6.77-11.79-9.93-17.82l-1.79-3.41a402 402 0 0 1-22.34-52.6l-1.06-3.04-.91-2.68c-.9-2.27-.9-2.27-2.9-5.27zm260 152.44-2.1 1.09c-9.7 5.25-14.33 10.49-17.72 21q-1.2 4.15-2.24 8.35l-.78 3.11c-2.67 11.24-3.82 22.57-4.88 34.05-.37 3.9-.85 7.77-1.34 11.65-.84 7.1-1.5 14.2-2.13 21.31l-.29 3.25-.25 3-.23 2.7-.04 2.05 1 1c4.85-.41 9.24-1.6 13.88-3.04q5.94-1.82 11.93-3.52l2.15-.64c13.55-3.84 26.72-4.12 40.7-4.06q4.8.01 9.6-.01c10.04 0 19.8.2 29.72 1.84 7.82 1.11 7.82 1.11 11.04-.71 17.8-16.56 28.36-36.65 29.32-61.16l.16-6.45c.33-11.18 1.2-22.03 3.19-33.05l.31-3.2c-2-2-2-2-3.9-2.16l-2.35.1a113 113 0 0 1-31.42-3.82c-29.15-7.65-56.1-6.82-83.33 7.32M826 532v2l-1.7.74c-10.58 5.8-19.53 17.15-27.3 26.26l-2.46 2.8c-7.52 8.6-14.16 17.73-20.54 27.2l-1.18 1.73c-13.84 20.63-21.07 43.8-23.82 68.27a17 17 0 0 0 4 1l3-2v-2l1.66-.81q2.47-1.26 4.9-2.63c12.6-6.84 25.43-7.17 39.44-6.56l3.32.14c16.84 1.59 33.54 9.54 48.7 16.68A303 303 0 0 0 925 688l2.53.53c13.1 2.63 26.52 2.7 39.85 2.72h2.18c10.77 0 20.96-.57 31.44-3.25l3.17-.73c10.01-2.46 17.58-7.19 25.83-13.27l1.94-1.26c5-3.56 6.98-8.4 9.37-13.86 9.73-22 28.1-35.72 49.74-45A53 53 0 0 0 1098 610l-1-3c-2.46-1.18-2.46-1.18-5.94-2.44-17.13-6.48-33.66-14.61-49.78-23.28-3.9-2.1-7.86-4.08-11.84-6.03-19.99-9.9-39.26-20.96-58.38-32.42A888 888 0 0 0 949 530l-1.96-1.1c-37.3-20.73-86.45-27.07-121.04 3.1m735-6-2.08 1.16A398 398 0 0 0 1529 546l-1.7 1.17q-7.2 4.94-14.33 9.97c-17.6 12.36-36.04 24.6-55.97 32.86l-2.17.9a322 322 0 0 1-51.46 16.6l-3.58.85-3.23.75c-2.56.9-2.56.9-4.56 3.9q6.86 4.36 13.94 8.38A113 113 0 0 1 1421 632l2.6 2.04c3.54 2.78 6.94 5.49 10.09 8.71 14.1 13.72 38.05 11.74 56.09 11.5 8.37-.21 16.1-1.23 24.22-3.25l3.93-.91c18.56-4.6 32.84-13.59 47.97-24.87 23.82-17.7 47.49-27.27 77.37-22.9 5.32.97 10.53 2.2 15.73 3.68v1l-3.5-.03a3308 3308 0 0 0-18.58-.12c-28.47-.26-47.17 8.68-69.67 26.04-24.82 19.07-49.6 27.33-80.81 27.3h-2.14c-9.6 0-19-.37-28.51-1.85-2.79-.34-2.79-.34-4.79.66.62 3.5 2 5.61 4.13 8.44 3.6 4.97 6.38 10.17 9.1 15.68 3.18 5.17 6.63 7.17 12.5 8.6l2.08.47 2.04.5c20.84 4.92 42.82 3.56 63.15-2.69l3.43-.98c13.39-4.08 25.7-11.1 38.07-17.52 26.08-13.55 51.84-26.11 81.5-28.5l2.48-.2c17.16-1.36 33.92-.7 50.52 4.2l4 1c1.22-4.18.85-6.13-1.21-9.92l-1.51-2.83-1.65-3-1.68-3.11q-1.68-3.13-3.38-6.24-2.02-3.75-3.95-7.52c-12.49-24.43-28.58-49.84-49.72-67.71-2.65-2.33-4.7-4.92-6.9-7.67-11.07-11.7-22.2-20.2-37.59-25.17a170 170 0 0 1-10.34-4.06c-11.72-4.36-34.57 9.25-45.07 15.23m-265 87c-1 2-1 2 .1 5.46l1.65 4.35c6.76 18.48 10.8 38.45 2.49 57.1-2.34 4.93-4.7 9.46-8.06 13.77-2.18 3.32-2.18 3.32-2.41 6.04 1.82 3.38 4.58 4.4 7.98 5.84l1.82.84c10.44 4.65 21.34 7.26 32.62 8.85l3.58.5c23.8 3.18 45.95-.53 69.07-6.45 22.97-5.87 39.72-6.21 61.16 5.7l3 2h3c-1.18-10.05-4.72-19.3-9.9-27.95a27 27 0 0 1-2.29-6.24c-1.42-4.7-4.05-8.4-6.87-12.37l-1.36-1.92A97 97 0 0 0 1448 664h-2l-.66-1.61c-1.83-3.27-4.3-5.86-6.84-8.58l-1.63-1.74c-4.7-5-9.64-9.63-14.87-14.07l-2.57-2.23c-11.52-9.75-26.73-22.15-42.3-22.08l-2.01-.05c-4.92 0-9.4.8-14.19 1.86-7.33 1.54-14.43 1.93-21.9 1.84q-3.04-.03-6.07-.02c-9.93-.02-20.64-.2-30.14-3.39-2.82-.93-2.82-.93-6.82-.93"/><path fill="#6b4a42" d="M1456 254c4 1.9 6.32 4.96 8 9 .7 4.5.48 8.04-1.56 12.13-8.7 10.25-17.85 15.96-31.6 17.14-4.38.14-8.77.17-13.17.17-11.96.2-22.36 3.93-31.67 11.56-18.2 19.27-18.33 47.02-18 72 .28 5.32.78 10.62 1.3 15.93 1.66 18.01.95 37.65-4.3 55.07h-3l.66-3.65c1.97-11.97 2.63-23.69 2.59-35.79v-2.18c-.04-11.93-.04-11.93-.75-16.82-.54-3.87-.7-7.67-.74-11.56l-.03-2.28c-.27-26.3-.3-53.23 18.99-73.53 11.98-10.88 26.73-14.93 42.6-15.63 8.2-.43 15.62-.86 22.68-5.56h2v-2l2.31-1.81c2.84-2.3 4.28-3.83 5.69-7.19-.2-5.92-.2-5.92-2.25-8.69-2.32-1.74-3.8-1.71-6.69-1.69l-2.59-.02c-2.97.48-4.32 1.31-6.47 3.4-1.25 3.69-1.25 3.69-2 7l-4-3c1.32-5.69 3.44-7.68 8-11 4.2-2.1 9.43-1.54 14-1M1069 265c5.61 1.93 11.2 4.54 14 10 .06 3.13.06 3.13-1 6-2.37 1.94-2.37 1.94-5 3l-3-1v-3l3-1c-.31-3.05-.47-4.55-2.86-6.58-8.21-4.34-8.21-4.34-13.14-3.42-2.37 1.5-2.37 1.5-4 3 .58 7.2 3.14 11.38 8.19 16.38 3.96 3.37 8.23 5.34 12.93 7.43 20.69 9.23 37.07 24.13 45.88 45.19 6.3 17.4 6.3 34.76 6 53h-2l-.21-2.67c-4.66-57.29-4.66-57.29-28.16-77.3a139 139 0 0 0-24.94-15.15c-9.5-4.63-17.94-9.4-21.69-19.88-.86-4.28-.53-7.18 1.88-10.94 4.16-4.04 8.57-3.75 14.12-3.06M1235 278c6.68 2.97 10.88 7.46 14 14 4.95 14.85-.57 32.56-7 46a106 106 0 0 1-12.06 18.38c-5.13 6.35-8.12 12.97-10.94 20.62h-3c2.42-10.43 7.54-18.86 14-27.31 4.78-6.43 7.97-13.31 11-20.69l1.32-3.14c2.46-6.71 3.08-13.1 3.18-20.17l.06-2.54c-.07-6.46-1.6-11.79-5.94-16.71-3.32-3.06-6.13-4.35-10.62-4.44-3.25.63-3.25.63-6 2-1.25 2.06-1.25 2.06-2 5l-.59 2.08c-1.28 4.91-1.78 8.92-.41 13.92 1.75 2.44 1.75 2.44 4 4 2.75.25 2.75.25 5 0v-9h4c1 1 1 1 1.31 3.69-.39 4.14-1.65 6.14-4.31 9.31-2.42 1-3.57 1.14-6.07.33l-2.06-1.08-2.06-1.05a9.4 9.4 0 0 1-4.3-6.11c-.9-7.36-.24-13.87 3.3-20.46 4.84-5.8 8.6-8.23 16.19-6.63"/><path fill="#6b4a42" d="M1427.69 308.06c5.79 4.85 9.75 9.6 10.56 17.33.27 5.7-.28 9.2-4.25 13.61-2 1.44-2 1.44-4 2-2.25-.38-2.25-.38-4-1 .55-3.37 1.05-5.08 3-8 .64-6.42-.33-9.71-4-15-2.97-1.49-4.67-1.43-8-1-10.88 5.68-15.3 16.84-18.95 27.88-5.66 20.07-4.51 42.86-4.61 63.5q-.03 6.02-.1 12.05l-.04 7.4c-.1 11.15-1.29 22.18-4.61 32.86l-.66 2.17A108 108 0 0 1 1381 479l-1.59 3.2c-3.76 7.33-8 13.61-13.41 19.8l-2.05 2.38c-25.7 29.24-25.7 29.24-36.95 30.62.6-3.2 1.5-4.92 3.69-7.31l1.88-2.08 11.3-12.11c8.38-8.97 8.38-8.97 12.13-13.5l2.36-2.8c17.77-21.74 24.73-47.9 24.82-75.6l.03-4.22q.08-8.85.12-17.71c.2-64.73.2-64.73 19.17-84.55 7.11-6.65 15.5-10.89 25.19-7.06M1096.44 333.44c18.3 17.11 20.02 46.08 22.56 69.56l.24 2c.76 6.31 1.1 12.63 1.4 18.98l.37 6.97.54 10.84c1.62 33.75 9.6 55.4 34.74 78.3q1.85 1.62 3.72 3.2c3.5 3.01 6.89 6.16 10.3 9.28q4.53 4.07 9.23 7.96C1181 542 1181 542 1182 545c-1.7.67-1.7.67-4 1-8.54-3.88-16.07-10.8-23.34-16.67q-2.25-1.8-4.5-3.54c-20.5-16.18-34.51-34.2-37.68-60.9-.92-8.65-1.52-17.33-2.16-26-5.55-74.27-5.55-74.27-18.32-94.89l-1.04-2.17c-1.27-2.43-2.44-2.78-4.96-3.83l-2.87-1.62c-4.32-1.9-7.24-2.03-11.7-.5-4.23 3.69-6.8 8.78-7.85 14.3-.22 5.52 1.44 10.19 4.73 14.57 2.4 1.78 5 3 7.69 4.25-1 3-1 3-3 4-4.02.26-7.64.1-10.86-2.49-6.03-6.95-7.23-13.35-7.14-22.51 1.45-8.17 5.89-14.5 12-20 9.79-6.31 21.33-1.16 29.44 5.44M1208 327c3.57.2 5.02 1.02 7.81 3.31 2.9 3.81 2.7 7.66 2.66 12.3-1.27 9.2-5 16.86-9.4 24.95-3.62 6.72-7.1 13.41-10.07 20.44h-1c-.82-8.02 3.66-14.4 7.35-21.2 5.42-10.03 10.77-19.98 8.65-31.8-2.44-3-2.44-3-5-5zM1255 356q2.5.43 5 1c1.13 6.75 1.13 6.75 0 9-2.31.25-2.31.25-5 0-1.94-1.69-1.94-1.69-3-4 .67-2.4 1.22-4.22 3-6M1279 357l2 1-.62 2.44c-.83 7.83 2.34 14.78 5.62 21.75 6 12.94 6 12.94 6 18.81h-2l-.67-1.7-3.08-7.74-1.06-2.66c-2-5.03-4.09-10-6.37-14.91-1.96-4.75-2.06-8.9-1.82-13.99zM1263 383.5c8.15 4.52 12.36 11.8 15 20.5.9 3.7 1.16 7.19 1.19 11l.04 3.06c-.32 4.07-1.48 6.9-3.86 10.19-3.28 2.42-6.37 3.06-10.37 2.75-3.64-1.23-6.29-3.21-8.87-6.06A33 33 0 0 1 1254 411c1.94-3.19 1.94-3.19 4-5 3.24.35 4.62.56 6.81 3.06L1266 411c-2.9.83-4.89 1-8 1-.32 4.64.12 7.3 3 11 2.38 1.75 3.55 2.02 6.5 1.88 3.25-1.14 4.51-2.04 6.5-4.88 2.41-7.3.26-14.3-3-21-3.04-4.46-6.2-8-10.94-10.62-4.21-.52-7.97-.67-12.06.62-6.38 5.84-7.48 12.76-8 21-.14 3.67-.1 7.32 0 11l.05 3.6c.29 10.2 2.05 19.9 4.22 29.85l.67 3.1.62 2.74c.48 2.95.51 5.73.44 8.71h-2q-1.09-4.26-2.14-8.53-.81-3.27-1.66-6.53c-4.88-19.54-8.97-46 .99-64.44 5.13-7.4 13.6-9.54 21.81-6M1277 454h2q1.27 3.75 2.5 7.5l.72 2.1c2.54 7.83 2.26 14.33-.35 22.21l-.68 2.12c-5.17 15.24-15.49 27.3-26.19 39.07l-1-3c.97-1.73.97-1.73 2.5-3.62l1.7-2.16q1.72-2.13 3.48-4.25c10.2-12.6 17.86-26.43 17.66-42.96-.37-3.23-1.3-5.94-2.34-9.01-.23-2.71-.1-5.27 0-8M1613.75 459.75l2.49.48A40 40 0 0 1 1630 466l-1 3c-4.93-.4-9.75-.86-14.56-2-24.4-5.7-45.59.41-66.5 12.99-10.74 6.68-20.54 14.25-30.13 22.48-2.46 2.08-4.98 4.08-7.5 6.1a264 264 0 0 0-14.28 12.74 357 357 0 0 1-8.83 8.09l-1.71 1.5C1484 532 1484 532 1482 532v2c-2.27 1.9-4.55 3.68-6.94 5.44l-2.19 1.62c-32.8 23.99-72.01 44.26-113.62 44.07h-7.18A28 28 0 0 1 1346 584l1-3 2.8-.08A179 179 0 0 0 1418 564l1.95-.92A279 279 0 0 0 1449 547l1.85-1.16c12.53-7.92 24-17.14 35.06-27q5.19-4.54 10.47-9.02 4.68-3.98 9.3-8.06c19.03-16.8 42.1-35.52 67.32-41.76l2.32-.61c12.63-2.84 25.81-2.1 38.43.36M901 468l2.03.36c29.78 5.4 57.82 19.5 83.86 34.44a364 364 0 0 0 5.95 3.3c8.54 4.7 16.34 10.12 24.16 15.9l3.83 2.8 7.64 5.61q4.57 3.36 9.15 6.65 5.09 3.69 10 7.55c20.25 15.8 41.92 26.51 66.38 34.39l6 2v3c-25.8-3.65-50.91-14.95-72-30l-8.66-6.18q-6.61-4.74-13.34-9.32a767 767 0 0 1-15.25-10.69c-9.6-6.89-19.28-13.3-29.75-18.81l-6.19-3.37L968 502l-3.47-1.84a365 365 0 0 0-25.84-11.91l-3.29-1.4c-9.37-3.92-18.72-7.73-28.65-9.98l-2.2-.5c-21.84-4.8-45.17-5.76-66.55 1.63.04-1.8.04-1.8 1-4a55 55 0 0 1 7.38-3.12l2.22-.79c16.94-5.81 34.9-5.26 52.4-2.09M1243 583.38c3 .62 3 .62 5.5 3.3 1.5 3.32 1.5 3.32.94 6.07C1248 595 1248 595 1245 597c-3.56-.19-3.56-.19-7-1-2.17-3.25-2.55-4.23-2-8 2.12-3.02 3.37-3.87 7-4.62M1242 620a54 54 0 0 1-3 10.44c-3.5 9.49-3.79 17.88-1.12 27.56l1.05 4 .53 1.97q1.32 5 2.54 10.03c3-1 3-1 4.5-3.4 6.22-12.84 8.53-23.36 9.06-37.54L1256 622c1.9.3 1.9.3 4 1 5.64 10.85 6.14 26.61 2.5 38.25a147 147 0 0 1-7.77 16.06c-2.89 5.45-3.81 10.21-3.6 16.44-.13 3.25-.13 3.25-1.32 5.25-1.81 1-1.81 1-4.25 1.25-3.02-1.48-3.17-2.1-4.43-5.1l-1.04-2.47L1239 690l-1.13-2.75a890 890 0 0 1-3.5-8.75l-1.19-2.97c-6.07-15.4-7.73-29.96-1.57-45.58 4.68-9.95 4.68-9.95 10.39-9.95M1156.81 637.88l2.2 2.12v2l-2.9-.1c-16.05-.34-30.03 3.98-42.1 15.1-4.8 5.21-8.68 10.3-11 17l3.55-.12c4.41-.02 8.64.5 13 1.12 14.8 2.04 25.68-.94 38.94-7.34 10.78-5.12 10.78-5.12 15.56-3.85L1176 665c-1.35 5.09-4.45 7.22-8.69 9.94l-2.02 1.3c-16.23 10.22-30.4 11.66-49.29 8.76-8.41-1.18-15.63-1.75-22.89 3.32a75 75 0 0 0-4.1 3.68l-5-2c-.97-6.4 2.25-10.1 5.8-15.06l1.78-2.54c11.67-16.38 41.62-49.42 65.22-34.52M1390.79 651.76c7.75 5.71 13.67 12.87 16.21 22.24-.44 2.23-.44 2.23-1 4-2.5.93-3.57 1.2-6.04.07l-2.15-1.38c-10.08-5.92-19-4.95-30-2.13-11.19 2.66-22.46 2.95-32.81-2.56-4.87-3.13-9.78-6.45-12-12l1-2a51 51 0 0 1 9.81 4.94c10.71 6.47 18.5 7.11 30.75 4.56 9.83-2.04 20.6-2.87 30.44-.5-2.83-8.47-10.24-13.35-17.92-17.28-14.56-7-29.04-9.32-45.08-9.72v-3c19.54-5.04 42.51 4.47 58.79 14.76M304 802c1.45 2.91 1.07 5.4 1.02 8.65l-.03 2.07-.11 6.79-.07 4.7-.2 12.38q-.12 6.3-.2 12.63L304 874l1.6-1.43 2.15-1.9q1.05-.92 2.1-1.87c12.51-10.51 26.4-11.9 42.15-10.8 9.65 1.64 16.63 7.46 22.6 15.02 7.36 11.73 8.05 27.17 9.62 40.57q1.2 9.97 2.72 19.91l.44 3.13c1.13 7.3 2.63 13.72 8.37 18.8 3.93 1.9 6.92 2.27 11.25 2.57v6h-74v-6l3.63-.19c4.84-.6 6.98-2.34 10.37-5.81 2.6-3.76 2.34-7.85 2.31-12.25v-2.43c-.13-6.58-1.08-12.66-2.46-19.1-.84-3.95-1.4-7.9-1.93-11.9-2.87-21.08-2.87-21.08-9.05-26.45-5.51-3.6-10.36-3.48-16.87-2.87-5.76 2.77-9.43 7.2-12 13-2.27 8.78-2.31 17.76-2.26 26.77q.01 3.34-.01 6.67c-.03 23.54-.03 23.54 6.27 30.56 4.1 3.3 7.91 3.57 13 4v6h-76v-6l1.98-.26c6.16-1 9.82-2.03 14.02-6.74 2.84-6.18 3.44-11.3 3.4-18.04l.03-2.94v-9.58l.02-6.7v-14q-.01-8.96.03-17.9.03-6.92.02-13.83l.01-6.6q.01-4.62 0-9.24l.02-2.73c-.08-7.23-1.82-13.42-6.72-18.88-3.27-1.81-6.25-2.52-9.92-3.16C249 827 249 827 248 826q-.06-3 0-6l2.32-.08c16.46-.87 32.13-5.8 45.47-15.65 3.22-2.28 4.4-2.85 8.21-2.27M1062 802v72h2l.8-1.81c3.87-7.08 12-10.7 19.27-13.28 4.86-1.33 9.74-1.28 14.74-1.28l2.83-.08c10.64-.04 18.5 3.49 26.1 10.87 13.12 15 12.91 38.97 14.95 57.78 2.5 22.82 2.5 22.82 9.31 28.8 3.7 2.47 7.66 2.57 12 3v6h-74v-6l3.63-.19c4.67-.6 7.15-2.28 10.37-5.81 2.25-5.32 2.3-10.33 2-16l-.12-2.46a146 146 0 0 0-2.66-18.06 213 213 0 0 1-2.3-13.99q-.35-2.42-.65-4.84c-.96-6.67-2.88-12.43-7.9-17.09-5.22-3.43-10.24-3.12-16.37-2.56-5.38 1.66-8.37 5.13-11 10-2.56 5.8-2.3 11.5-2.3 17.72l-.01 3.42v7.14q-.01 5.46-.05 10.91v6.96l-.03 3.28c.04 7.1.53 12.46 5.52 17.88 3.31 1.95 6.21 2.59 9.98 3.2l1.89.49c1 2 1 2 0 6h-75v-6l3.63-.25c5.67-.73 9.01-3.14 12.68-7.5 3.27-6.3 2.84-13.59 2.84-20.55l.02-11.5v-6.17q.02-6.43.01-12.87 0-8.23.04-16.46l.02-18.77v-8.5l.02-2.5c-.04-7.94-.83-15.77-6.26-21.93-3.37-1.75-3.37-1.75-7-3l-3.44-1.19-2.56-.81v-6l2.53-.15c9.62-.64 17.66-1.83 26.47-5.85l2.23-.8c6.38-2.3 11.46-5.56 16.91-9.6 2.86-1.6 2.86-1.6 8.86-1.6M1707.38 801.69l2.62.3c1.29 2.58 1.12 4.4 1.1 7.27v3.38l-.02 3.73-.03 12.35-.04 13.37-.1 38.01-.06 20.99q0 6.63-.04 13.26-.03 5.13-.02 10.25l-.03 3.67c.02 18.45.02 18.45 6.24 25.73 3.04 2.45 5.46 3.16 9.25 3.56q1.85.23 3.75.44c1 2 1 2 0 6h-76l-1-5c1-1 1-1 4.69-1.31 4.32-.51 6.96-1.81 10.31-4.7 4.7-7.21 5.3-15.8 5.26-24.2v-2.65q.02-4.3 0-8.57l.01-6.01v-12.57q-.02-8.03 0-16.04v-18.31l-.01-8.3.01-2.42c-.06-8.12-.56-16.37-6.35-22.54-2.98-2.15-6.24-2.72-9.77-3.56-2.15-.82-2.15-.82-3.78-4L1653 821c1.96-1.96 5.62-1.59 8.31-1.87 10.44-1.26 19.59-3.34 29.07-8l2.01-1a42 42 0 0 0 8.88-5.87c2.73-2.26 2.73-2.26 6.1-2.57M1809.06 801.94l2.94.06v2.16q.1 26.07.24 52.13.07 12.6.1 25.22l.1 21.98q.05 5.82.06 11.63 0 5.48.05 10.97.03 2.96.01 5.9c.09 8.23.42 15.55 6 21.95 3.95 2.9 8.69 3.43 13.44 4.06v6h-77v-6l1.98-.26c6.15-1 9.74-2.14 14.02-6.74 3.66-6.45 3.15-14.9 3.13-22.13v-75.19c-.05-13.92-.05-13.92-3.5-19.05l-1.28-1.97c-2.62-3.23-5.68-4.18-9.54-5.28l-2.73-.8-2.08-.58v-6l2.53-.15c9.62-.64 17.67-1.83 26.47-5.85l2.27-.84c7.23-2.66 15.63-11.08 22.8-11.22M948 821h6l1 38 24 1v8l-11.44.44-3.3.12-3.13.12-2.9.12c-2.23.2-2.23.2-3.23 1.2q-.15 2.97-.16 5.95l-.03 3.87-.01 4.21-.02 4.32-.02 9.06q0 5.77-.06 11.56-.02 4.45-.02 8.92l-.03 4.26c-.12 14.26-.12 14.26 3.35 20.85 3.68 2.34 6.1 2.98 10.44 3.06 4.69-1.4 7.87-3.92 11.56-7.06l2 1c-.43 5.75-2.78 9.4-6 14l-2.06 3.13a29 29 0 0 1-19.19 9.39c-7.87.34-14.97-.18-21.75-4.52l-1.88-1.03c-7.15-4.34-10.88-12.15-13.12-19.97a101 101 0 0 1-.3-7.18l-.03-2.1-.05-6.8-.05-4.75q-.07-6.21-.11-12.44a6649 6649 0 0 0-.25-26.95q0-2.12-.04-4.24l-.02-3.76C917 870 917 870 916 869a224 224 0 0 0-10.36-.7L900 868v-8l2.79-.41c14.86-2.53 28.27-8.12 37.4-20.72 3.51-5.55 5.65-11.69 7.81-17.87M203 857l3 1c1.33 11.72 2.32 23.2 2 35h-5l-.55-1.69-1.6-4.8q-.8-2.31-1.5-4.64c-1.93-5.85-4.99-11.13-10.6-14.04-3.35-1.01-6.32-1.2-9.81-1.27l-3.66-.12c-3.28.56-3.28.56-5.69 2.9-1.94 3.25-2.14 4.92-1.59 8.66 4.6 9.4 16.45 13.86 25.41 18.22 13.04 6.39 27.07 13.52 33.73 27.1 2.17 6.75 1.95 15.06-.76 21.62-5.55 10.4-13.85 15.93-25 19.43-21.1 5.33-48.75 3.63-67.85-6.8-6.6-4.1-11.23-8-13.06-15.86-1.03-6.44-.14-11.28 3.53-16.71 4.72-5 8.2-7.17 15.13-7.37 6.27.05 10.26 1.06 14.87 5.37 3.56 4.2 4.56 7.54 5 13l-1.72 1.02-2.22 1.36-2.21 1.33C151 941 151 941 150 943c-.52 3.88-.38 5.48 1.94 8.69 6.61 4.99 13.03 5.6 21.12 5.75l2.3.06c6.34-.02 11.5-1.77 16.34-5.98 1.9-2.22 1.77-3.95 1.8-6.83l.1-2.8c-.8-3.9-2.72-6.28-5.6-8.89a70 70 0 0 0-6.94-3.94l-1.99-1.02q-4.8-2.44-9.67-4.75c-12.83-6.16-25.9-13.4-32.55-26.56-2.13-6.83-2.24-16.91.84-23.42 4.95-7.86 12.5-12.76 21.31-15.31 4.78-.4 9.57-.32 14.38-.31l3.9-.05c7.03 0 12.32.47 18.72 3.36 2.88-.12 2.88-.12 5-1zM476.88 857.75l3.97-.02c15.02.03 28.16 2.7 39.47 13.36 2.9 3.3 4.86 6.92 6.68 10.91l.9 1.97c3.75 9.07 4.42 19.17 5.48 28.84A387 387 0 0 0 539 948l.37 2.2.63 1.8c3.15 1.05 5.39 1.1 8.69 1.06l3-.02L554 953l1 5c-7.92 7.51-15.74 8.45-26.33 8.35-9.1-.26-17.59-2.28-24.67-8.35-1.5-2.81-1.5-2.81-2-5a39 39 0 0 0-8.25 6c-3.85 3.4-7.85 4.68-12.75 6l-3 1c-3.54.23-7.08.18-10.62.19l-2.92.03c-11.85.03-22.02-2.42-30.92-10.6-5.9-6.2-6.43-12.33-6.54-20.62l-.04-2.23c.39-7.4 5.14-13.28 10.42-18.08 10.7-8.41 24.39-10.78 37.63-12 5.44-.52 11.06-1.22 15.99-3.69 3.11-6.67 1.31-12.26-1-19-4.09-10.01-4.09-10.01-9-13-5.48-1.65-10.74-1.17-16.04.85-3.55 2.08-4.51 4.33-5.96 8.15.13 2.9.74 4.53 2.13 7.06.87 1.94.87 1.94.87 3.88-1.58 3.26-4.13 4.94-7 7.06a20.4 20.4 0 0 1-14.31-.19c-3.68-2.48-5.15-4.9-6.35-9.14-.63-5 1.37-9.29 3.66-13.67 10.1-12.14 24.1-13.34 38.88-13.25M491 909.31c-2.9 1.64-5.22 2.33-8.44 3.13-7.4 1.92-13.44 5.73-17.68 12.29-1.98 5.1-1.38 10.91-.88 16.27 1.63 3.56 1.63 3.56 4 6l2.69 2.81c5.07 3.36 9.58 3.72 15.5 2.57 5.44-2.67 8.93-5.67 11.22-11.35 1.08-3.71.99-7.38.9-11.22l-.02-2.51A96 96 0 0 0 496 908c-3 0-3 0-5 1.31M663.19 864.94c11.82 8.99 17.03 20.61 19.1 35.06q1.29 9.7 2.46 19.4C688 946 688 946 693 953c2.7.49 2.7.49 5.69.31l3-.13 2.3-.18 2.01 5q-1.77 1.45-3.56 2.88l-2 1.61c-5.91 3.66-12.09 3.85-18.81 3.82l-2.43.05a38.2 38.2 0 0 1-25.64-9.48C652 955 652 955 652 953h-3l-.68 1.77c-1.71 2.89-3.62 4.07-6.44 5.86l-2.76 1.78c-7 3.56-13.73 3.95-21.43 3.9l-2.81-.01c-11.45-.19-23.5-2.92-31.88-11.3-5.77-6.62-5.96-14.28-5.54-22.67.76-8 4.7-13.04 10.67-18.14 11.28-8.06 23.88-10.16 37.31-11.4 5.98-.6 11.46-1.4 16.56-4.79 2.1-8.53-.16-16.28-4.02-24.06-1.87-2.98-3.86-5.34-6.98-6.94-6.86-1.57-11.67-.92-17.81 2.63-2.65 2.87-3 4.67-3.28 8.48.11 2.38.9 3.86 2.09 5.89.5 2.44.5 2.44 0 5-4.15 4.06-6.94 5.86-12.75 6.25A21 21 0 0 1 588 892c-2.91-3.64-3.24-6.79-3.12-11.31.82-6.36 3.4-10.42 8.12-14.7 18.06-12.67 51.53-12.75 70.19-1.05m-24.94 45.44a103 103 0 0 1-9.38 3.62c-5.68 1.98-10.37 5.49-13.37 10.75a23.6 23.6 0 0 0-.84 16.49c2.2 5.05 5.31 8.46 10.34 10.76 4.67 1.33 8.1 1.27 12.75-.12 4.7-2.72 8.2-5.8 10.25-10.88.26-2.62.26-2.62.27-5.58v-3.27l-.02-3.4.02-3.36c-.01-6.15-.46-11.5-2.27-17.39-2.92 0-5.08 1.22-7.75 2.38M786 858l1 15 3.06-2.69L794 867l1.64-1.37c8.6-6.7 17.25-8.01 27.92-8.13l2.94-.06c10.17.1 18.11 3.2 25.47 10.25 11.61 13.2 12.54 31.22 14.31 47.9C869.79 948 869.79 948 877 955c3.58 2.55 7.74 2.57 12 3v6h-74v-6l3.63-.19c4.86-.61 7-2.28 10.37-5.81 5.13-10.02 1.6-24.53-.31-35l-.7-3.96-1.37-7.65q-.77-4.23-1.48-8.45l-.7-3.94-.57-3.19c-1.42-4.59-3.91-7.9-7.37-11.18a23 23 0 0 0-17.91-.75c-5.39 3.05-8.33 7.13-10.18 12.98-1.96 8.38-1.71 16.88-1.67 25.43q.01 4.05-.01 8.1c-.02 22.07-.02 22.07 4.64 28.11 4.7 4.48 8.3 4.87 14.63 5.5v6h-76v-6l2.01-.3c9.3-1.57 9.3-1.57 12.99-5.7 2.3-4.7 4.11-8.99 4.16-14.24l.03-2.58.01-2.78.02-2.88.02-6.05q.02-4.59.07-9.19l.02-5.88.04-2.75c-.03-6.53-.62-13.31-4.92-18.53-4.2-4.15-8.71-5.37-14.45-6.12v-5l3.34-.45c13.17-1.89 35.1-5.17 44.01-16.23C779 858 779 858 786 858M1272.66 867.02c12.4 10.51 14.96 24.63 16.72 39.98a799 799 0 0 0 4.09 29.71c.87 5.53 1.91 10.32 4.53 15.29 3.11 1.56 6.26.96 9.69.84 2.31.16 2.31.16 4.31 2.16-.32 3.34-1.52 4.84-4 7-6.53 3.75-13.26 4.39-20.62 4.44q-1.19 0-2.39.03c-8.5-.13-15.94-2.77-22.99-7.47-4-4.3-4-4.3-4-7h-2l-.82 1.81c-3.42 6.35-9.72 9.48-16.4 11.5-14.54 2.65-32.2 2.17-44.78-6.31-5.93-5.37-9.46-10.2-10.37-18.3-.18-9.36 1-15.92 7.43-22.95A48 48 0 0 1 1206 908l2.38-1.13c7.56-2.52 15.48-3.29 23.38-4.08 12.01-1.28 12.01-1.28 16.22-4.13 2.5-4.06 1.49-9.66.45-14.1-2.16-6.74-4.61-13.23-10.43-17.56-5.53-1.42-10.83-1.64-16 1-2.95 2.11-4.75 3.55-5.38 7.22-.1 4.2-.01 6.2 2.38 9.78 0 1.87 0 1.87-1 4-4.92 4.6-8.14 6.32-14.94 6.22-4-.43-6.96-2.06-9.7-4.96-2.62-4.35-1.94-9.37-1.36-14.26 3.6-7.79 11.21-12.87 19-16 18.68-5.87 45.39-4.44 61.66 7.02m-24.9 42.37c-3 1.75-5.7 2.5-9.07 3.36-7.87 2.35-13.1 6-17.19 13.19-2.1 4.85-2.45 9.08-.84 14.13 2.25 5.13 5.44 9.13 10.34 11.93 5.42 1.74 10.1 1.21 15.28-1.05A16.2 16.2 0 0 0 1254 942c1.38-5.85.96-11.61.69-17.56l-.24-6.13-.11-2.73A26 26 0 0 0 1252 908c-2 0-2 0-4.23 1.4M1579.69 857.63l3.6-.08c14.78-.05 26.3 4.27 37.02 14.33A34.5 34.5 0 0 1 1628 884l1.1 2.78c1.03 3.67 1.1 6.79 1.03 10.6l-.06 3.77-.07 2.85c-4.65 2.21-9.32 2.76-14.37 3.44-6.07.85-12.07 1.8-18.07 3.06-12.39 2.58-24.98 4.15-37.56 5.5 2.4 9.83 6.38 15.6 15 21 9.6 5.48 22.6 5.9 33.26 3.49 6.27-1.87 12-4.48 16.87-8.93 2.87-2.56 2.87-2.56 5.8-2.43l2.07.87c-.76 6.8-3.94 10.69-8 16l-1.3 1.88c-7.08 9.45-20.22 16.4-31.7 18.12-19.92 1.6-37.92-.51-53.75-13.75-10.1-9.5-16.65-21.44-17.36-35.34-.45-15.52 1.4-28.87 12.1-40.91 13.15-13.34 28.28-18.36 46.7-18.37m-17.7 16.37c-5.13 9.08-5.85 19.76-5 30q.95 2.03 2 4l15.16-2.4a1125 1125 0 0 0 18.8-3.14C1595 902 1595 902 1596 901c.8-11.37.42-21.24-6-31.06-3.73-3.62-7.04-4.33-12.19-4.57-7.46.14-11.38 2.72-15.81 8.63M1913 858v15h3l.78-1.81c4.33-7.77 14.32-10.56 22.22-13.19 3.56-.26 7.12-.23 10.69-.25l2.93-.06c9.9-.06 17.78 2.85 25.38 9.31 9.27 10.73 11.87 24.6 13.44 38.25.95 7.93 1.95 15.85 3.12 23.75l.35 2.4c1.3 8.59 2.58 16.93 8.78 23.41 4.07 2.69 6.5 2.94 11.31 3.19v6h-73l-1-5c1.52-1.52 3.22-1.45 5.31-1.81 5.57-1.19 7.58-3.52 10.69-8.19 1.8-16.42-1.96-32.94-5-49l-.56-2.99c-1.37-7.08-2.66-13.14-8.44-18.01-4.88-3.26-10.3-2.57-16-2-5.27 2.5-8.64 6.2-11.19 11.44-1.94 6.14-1.96 12.15-1.94 18.52v26.69c.04 14.13.04 14.13 5.13 20.35 4.1 3.3 7.91 3.57 13 4v6h-76v-6l1.76-.08c5.43-.4 9.11-1.08 13.24-4.92 3.98-6.49 4.6-12.6 4.53-20.06l.01-3.13q0-3.25-.02-6.5-.02-4.95.03-9.9l-.02-6.35.03-2.95c-.1-6.39-1.16-11.62-4.56-17.11-4.18-3.71-7.55-4.37-13-5l-2-2c.38-2.62.38-2.62 1-5l1.7-.11c15.28-1.26 33.35-5 45.18-15.57C1906 858 1906 858 1913 858M2123.94 866.3c6.23 5.13 11.13 10.08 14.06 17.7l1.1 2.78c1.03 3.67 1.1 6.79 1.03 10.6l-.06 3.77-.07 2.85c-4.65 2.21-9.32 2.76-14.37 3.44-6.07.85-12.07 1.8-18.07 3.06-12.39 2.58-24.98 4.15-37.56 5.5 2.2 9.63 5.55 15.02 13.94 20.31 10.39 6.17 23.84 6.34 35.5 4A48.6 48.6 0 0 0 2138 929c2.63.37 2.63.37 5 1-.84 8.9-7.47 17.02-13.94 22.94-15.73 12.5-31.46 14.62-51.06 13.06-13.41-1.68-27.19-9.77-35.8-20.17-10.52-14.12-13.08-30.04-10.74-47.22 3.05-13.72 10.58-23.87 21.98-31.92 19.54-12.27 51.43-14.33 70.5-.39M2076 870l-2.12 1.62c-4.58 5.8-6.57 13.08-6.88 20.38l-.12 2.77c-.12 5.04.14 8.55 2.12 13.23a7765 7765 0 0 0 28.03-4.59l2.37-.38c5.49-.92 5.49-.92 6.6-2.03.8-11.37.42-21.24-6-31.06-3.7-3.58-6.77-4.25-11.87-4.32-5.22.1-8.15.8-12.13 4.38M2217.81 857.69l3.74-.05c6.36 0 11.77.3 17.7 2.73 2.53.9 4.28.6 6.75-.37l2-2h3c1.2 2.38 1.19 4 1.28 6.66l.22 5.84c.24 6.58.6 13.08 1.4 19.62l.1 1.88c-1 1-1 1-3.56 1.06L2248 893l-.52-2.12c-2.2-8.6-4.45-16.05-11.48-21.88-5.76-2.82-11.72-2.78-18-2-3.31 2.13-3.31 2.13-5 5-.58 3.45-.33 5.3 1.17 8.45 2.21 3.08 4.37 4.45 7.64 6.36l1.72 1.02L2229 891l3.62 2.12c5.1 2.97 10.22 5.85 15.57 8.38 9.5 4.67 19.22 11.25 23.68 21.19a35.3 35.3 0 0 1-.78 23.22c-4.54 8.68-12.23 14.07-21.35 17.22-9.27 2.61-17.88 3.52-27.55 3.37l-2.11-.02c-18.73-.18-35.37-2.88-50.08-15.48-4.5-5.6-4.6-10.66-4.39-17.75.52-4.36 1.39-6.08 4.39-9.25l2-2.25c5.12-4.48 10.04-4.17 16.64-4.07 4.47.43 6.13 1.26 9.36 4.32l2.25 1.94c3.5 4.13 4 7.73 3.75 13.06l-3.38 1.31C2197 940 2197 940 2195 943c-.44 2.88-.44 2.88 0 6 3.42 4.6 7.59 6.53 13 8 3.18.42 6.3.47 9.5.44l2.43.06c6.52 0 11.83-1.6 16.75-6 2.59-2.94 2.5-6.74 2.32-10.5-4.86-11.28-22.57-17.47-33.19-22.44-10.37-5.2-18.82-11.9-23.8-22.56-2.1-8.04-1.81-16.54 1.99-24 8.5-12.36 19.57-14.35 33.81-14.31M2348.06 857.56l3.68-.02c6.28.05 11.65.44 17.49 2.84 2.53.89 4.31.62 6.77-.38l1-2h4c1.15 3.71 1.2 7.3 1.32 11.17l.06 2.07.18 6.51.13 4.43.31 10.82h-5l-.48-2.09c-2-8.07-4.7-16.59-11.52-21.9-5.8-2.8-11.7-2.78-18-2.01-3.31 2.06-3.31 2.06-5 5-.63 3.5-.63 3.5 0 7 7.45 9.86 22.21 16.22 33.06 21.44 10.25 5.06 21 11.45 25.81 22.31 2.9 8.8 1.32 17.63-2.56 25.81-5.96 9.85-16.44 13.92-27.09 16.58-6.81 1.52-13.65 1.47-20.6 1.36l-2.18-.02c-18.52-.17-34.9-3-49.44-15.48-4.5-5.6-4.6-10.67-4.38-17.75.67-5.7 3.37-8.46 7.5-12.06 5.8-4.41 11.79-3.77 18.88-3.19 5.24 2.44 8.16 6.15 11.25 10.94 1 2.74.88 5.17.75 8.06l-3.38 1.37C2327 940 2327 940 2325 942c-.34 3-.55 5.1 0 8 3.78 4.37 9.63 6.55 15.3 7.3q3.6.19 7.2.14l2.43.06c5.8 0 10.24-1.23 15.07-4.5 2.43-2.61 3.85-4.38 4.19-7.99-.24-3.98-.94-5.71-3.57-8.82L2363 934l-1.2-1.4c-2.72-2.41-5.93-3.8-9.18-5.35l-4.35-2.14-2.19-1.08c-14.35-7.09-27.22-14.04-34.46-28.84-1.68-8.61-1.26-16.5 3.07-24.19 8.81-11.44 19.39-13.67 33.37-13.44M1316.63 859.88h5.49l6.41.02h4.44l11.7.03 11.92.02 23.41.05c1.25 2.5.78 3.41 0 6l-3.38.94C1373 868 1373 868 1371 869c-2.75 8.25 2.21 16.73 5.68 24.08 1.4 3.1 2.62 6.24 3.82 9.42 1.58 4.2 3.28 8.3 5.19 12.37 1.86 4 3.26 7.84 4.31 12.13h2l1.19-3.69c3.06-9.17 6.6-18.12 10.7-26.87L1405 894l1.2-2.56c.92-2.8.8-3.72-.2-6.44l-.98-2.84c-2.44-6.27-4.16-10.65-10.02-14.16a49 49 0 0 0-7-2 88 88 0 0 1-1-5c1-1 1-1 3.63-1.12h5.49l6.41.02h4.44l11.7.03 11.92.02 23.41.05c1.25 2.5.78 3.41 0 6l-3.81.81c-2.34.6-4.1 1.14-6.19 2.38-1.67 3.02-1.34 5.42-1 8.81a85 85 0 0 0 2.14 4.98c1.4 3.28 2.16 6.72 3.02 10.18.8 2.7 1.85 5.18 3 7.76 1.78 4.4 3.11 8.98 4.53 13.52l.97 3.08L1459 925h3l.36-2.61c1.62-8.6 5.72-16.68 9.38-24.57 1.87-4.2 3.5-8.49 5.12-12.8q1.03-2.75 2.2-5.45c1.32-3.12 2.04-5.07 1.38-8.45-1.72-2.54-2.51-3.2-5.44-4.12-2.67-.44-5.3-.73-8-1v-6h40v6l-3.69.81c-7.03 1.81-10.52 5.01-14.31 11.19a100 100 0 0 0-3.5 8.75l-1.8 4.8-.88 2.33c-1.38 3.57-3.02 7.02-4.64 10.48-1.83 4.08-3.35 8.27-4.93 12.46a144 144 0 0 1-3.75 8.62c-2.45 5.26-4.34 10.65-6.24 16.13-1.5 4.09-3.27 8-5.12 11.94A133 133 0 0 0 1454 964q-3.9.2-7.81.31l-2.24.13c-2.16.05-2.16.05-5.95-.44-1.83-2.05-1.83-2.05-3-5l-1.43-3.57-1.45-4a297 297 0 0 0-5.68-14.56 208 208 0 0 1-4.94-12.93 160 160 0 0 0-6.39-15.54c-1.11-2.4-1.11-2.4-2.13-5.15C1412 901 1412 901 1410 900l-.37 2.15a55 55 0 0 1-2.7 8.41l-1.34 3.44-.76 1.9-2.76 7.01c-3.13 7.9-6.3 15.73-9.91 23.42-1.97 4.54-3.54 9.22-5.14 13.9C1386 963 1386 963 1385 964q-4.04.11-8.06.06l-2.3-.01-5.64-.05c-4.37-8.37-8.15-16.98-11.95-25.62L1352 927l-2-4.51q-1.98-4.45-3.97-8.88l-1.97-4.42-.99-2.2a542 542 0 0 1-5.36-12.47q-.59-1.39-1.18-2.82-1.12-2.67-2.2-5.36c-2.81-6.7-6.06-13.72-11.83-18.34a32 32 0 0 0-8.5-2 88 88 0 0 1-1-5c1-1 1-1 3.63-1.12M979 1076l2 1v62l2 1-1 2q-.15 4.18-.13 8.37v23.43c0 3.64.24 6.65 1.13 10.2l9 2v2h-28v-2l9-2 1-98h-2v-2h-6c2.38-2.67 4.87-4.15 8.06-5.75l2.66-1.36zM1528.13 1087.69c5.75.46 11.68 2.12 15.87 6.3 2.56 4.36 2.66 9.1 2 14-2.91 8.67-8.97 14.38-16.31 19.39l-1.96 1.36q-2.36 1.64-4.73 3.26l-2-1 2.74-2.45 3.57-3.24 1.8-1.6c5.07-4.62 8.52-8.86 9.06-15.9.04-5.1-.05-9.22-3.42-13.34-2.2-1.85-4.17-2.4-6.94-3.16l-2.73-.76-2.08-.55c2-2 2-2 5.13-2.31"/><path fill="#6b4a42" d="m1514 1092 3 1-1.94 2.19c-3.9 5.33-3.64 11.64-2.75 18a55 55 0 0 0 4.88 13.87c.81 1.94.81 1.94.81 4.94h3l.31 1.74c3.52 11.56 18.55 24.06 27.69 31.26a34 34 0 0 0 5 2c4.77-8.58 6.5-16.16 5.58-25.97-.58-2.03-.58-2.03-3.58-4.03a100 100 0 0 0-6-1v-2h29v2l-1.8.02c-2.77.27-4.7.7-7.2 1.98-2.43 3.72-3.63 7.8-5 12q-1.32 3.5-2.69 7l-1.2 3.19a69 69 0 0 1-3.11 6.81h-2c.37 2.43.62 3.67 2.52 5.3l1.94 1.14 2.17 1.26 2.3 1.3 2.34 1.34c6.65 3.75 13.28 6.9 20.73 8.66v2c-14.98.67-23.82-1.78-36-11a25 25 0 0 0-6.69 4.38c-7.98 6.76-18.66 9.12-28.93 8.43-8.2-1-15.46-2.9-20.79-9.58-4.41-6.63-4.82-13.47-3.59-21.23 2.67-6.9 7.52-12.16 13-17l2.75-2.44c2.25-1.56 2.25-1.56 5.25-1.56l-.99-1.84c-4.4-8.45-9.72-19.48-7.54-29.29A41 41 0 0 1 1511 1095l3-1zm-1 46-4.81 4.63-2.71 2.6c-4.61 5.15-6.07 9.74-6.04 16.58v2.14c.27 7.48 3.04 11.49 8.12 16.63 6.41 5.8 13.2 6.02 21.41 5.8 8.12-.53 14.21-5.02 20.03-10.38-1.57-4-4.19-6.19-7.37-9l-3.26-2.93-1.69-1.53c-7.25-6.63-14.02-13.3-19.28-21.68-1.4-1.86-1.4-1.86-4.4-2.86M916 1119h2v11l22-1v6l-21-1q-.15 9.26-.22 18.52l-.08 6.3q-.06 4.54-.1 9.07l-.05 2.83c0 4.27.05 6.63 2.33 10.33 3.32 3.05 5.72 3.96 10.23 3.93l6.44-.7 2.45-.28c-3.34 3.75-7.16 4.99-12 6-5.2.08-10.49-1-14.61-4.29-1.78-2.2-1.77-3.4-1.8-6.2l-.03-2.73v-2.96a2217 2217 0 0 1-.21-22.32q-.04-3-.05-6c-.1-8.85-.1-8.85-2.3-12.5-2.62-.81-2.62-.81-5-1v-2l3.25-.69c4.18-1.46 5.45-2.6 7.75-6.31.75-2.31.75-2.31 1-4M534 1129v11h-2l-1.19-2.81c-2.06-3.62-2.98-4.64-6.81-6.19q-5.96-.98-12-1v-2c7.34-1.66 14.99-2.03 22 1M596 1129c1 1 1 1 1.06 4.56L597 1137h-3l-2.31-2.37c-4.19-4.1-7.89-4.73-13.57-4.76l-4.12.13v-2c7.3-1.58 15.13-2.25 22 1M1325.18 1129.53c5.3 4.29 10.29 10.54 11.04 17.49.62 11.96.27 21.78-7.6 31.36a41 41 0 0 1-9.62 7.62l-2-1 1.68-1.8 2.2-2.39 2.17-2.35c4.58-5.78 4.35-11.58 4.39-18.65l.1-3c.05-7.85-1.7-14.53-7.05-20.5-4.69-4.15-8.35-4.56-14.47-4.46-5.63.42-9.47 3.05-14.02 6.15h-2v-2a97 97 0 0 1 6.25-4.06l1.78-1.1c8.03-4.89 18.73-6.23 27.15-1.3M1894 1127c8.8-.44 15.74.16 23.19 5.13 6.25 5.76 10.4 13.17 11.15 21.64.26 11.6-1.7 18.82-9.56 27.5a33 33 0 0 1-5.78 4.73l-3-1 2.25-1.37c5.49-5.24 6.92-11.4 7.22-18.8.14-11.66-1.96-21.43-10.32-30.06-3.25-2.67-6.1-3.64-10.15-4.77q-2.5-.99-5-2zM308 1128c2.68 4.02 2.16 6.24 2 11l4-1-1.48 1.97c-1.94 3.86-1.92 7.22-1.85 11.44v2.43l.05 5.07q.04 3.87.05 7.74l.04 7.27c.05 3.81.28 7.38 1.19 11.08l9 1v2h-27v-2l3.38-.31 3.62-.69c2.07-3.11 2.25-3.8 2.26-7.33l.02-2.64-.01-2.84v-9.05q-.01-4.7 0-9.38v-8.79l-.01-2.64v-2.32C303 1138 303 1138 301 1135c-3.83-.34-7.27.12-11 1v-2q3.09-1.5 6.19-3l3.48-1.69c3.14-1.23 5.02-1.87 8.33-1.31M345.5 1130.13c2.96 3.4 3.64 5.5 4.5 9.87h2v2h-2a8199 8199 0 0 0 .68 30.08l.05 2.52.06 2.37.05 2.07c.17 2.07.6 3.96 1.16 5.96l8 1v2h-26v-2l8-1c1.15-4.13 1.2-8.16 1.24-12.42l.02-2.48.04-5.2q0-2.64.06-5.28.06-3.83.07-7.67l.05-2.35c-.02-5.56-1.24-10.01-4.48-14.6-4.67-3.11-9.53-2.48-15-2-3.5 1.38-3.5 1.38-6 3l-4 2c2.14-5.48 6.97-7.47 12-10 6.07-1.9 14.23-1.8 19.5 2.13M385.5 1130.25c4.92 5.4 4.81 10.52 4.88 17.5a5361 5361 0 0 1 .4 26.37l.05 2.56.03 2.24c.14 2.13.56 4.03 1.14 6.08l8 1v2h-26v-2l8-1c1.3-3.98 1.2-8.03 1.24-12.17l.02-2.4.04-5.05q0-2.55.06-5.11c.33-19.18.33-19.18-4.36-25.27-3.53-2.36-5.19-2.3-9.37-2.31l-3.4-.05c-3.52.4-5.33 1.41-8.23 3.36h-2v2l-3 1c2.33-5.67 7.54-8.52 13.02-10.86 6.38-1.91 14.03-2.1 19.48 2.11M461.94 1130.19c3.74 5.1 3.22 11.21 3.3 17.31l.1 4.94.14 7.7.14 7.49.03 2.32c.1 4.1.52 7.35 2.35 11.05l8 1v2c-9.23 4.6-9.23 4.6-15 4-1.26-2.9-2-4.8-2-8h-3v-2h2v-18h-2v-2h2a670 670 0 0 0-.25-10.12l-.04-2.89c-.2-5.84-.57-9.68-4.71-14-2.58-.8-2.58-.8-5.25-.86l-2.7-.12-2.05-.01v-2c13.16-2.11 13.16-2.11 18.94 2.19M664.44 1129.81c2.5 3.5 3.8 6.13 3.85 10.45l.04 2.52.01 2.7.05 2.78q.09 5.9.14 11.79l.13 8.61.01 2.7.04 2.5.02 2.21c.27 1.93.27 1.93 2.27 4.93 1.95.51 1.95.51 4.13.69l3.87.31v2c-9.81 4.89-9.81 4.89-15 4-2.15-3.23-2.2-4.28-2-8l-4-1 3-1q.12-4.19.19-8.38l.07-2.4c.03-2.08-.1-4.15-.26-6.22l-3-2 3-2c.3-2.82.42-5.37.38-8.19l.03-2.25c-.03-6-1-11.16-5.41-15.56-2.38-.41-2.38-.41-5.12-.63l-2.76-.22-2.12-.15v-2c6.21-1.19 13.1-2.15 18.44 1.81M725 1128q3.1-.12 6.19-.19l3.48-.1c3.66.32 5.32 1.28 8.33 3.29l2.18.4c1.82.6 1.82.6 3.05 2.64 4.98 13.44 4.98 13.44 1.73 21.1A22 22 0 0 1 742 1164h-3c2-4 2-4 3.05-5.78 2.16-5.03 1.76-11.41.26-16.6-2.14-4.7-4.96-7.77-9.31-10.62a56 56 0 0 0-8-2zM762 1128q.06 2.5 0 5l-1 1a99 99 0 0 1-5.94-.31l-3.27-.24C749 1133 749 1133 747 1131c5.15-3.17 9.16-3.35 15-3M823.63 1130.38c5.9 6.51 4.37 6.5 4.37 17.62l-39 1c0 22.24 0 22.24 8.1 30.6 5.1 3.78 11.18 5.86 17.52 5.34 4.61-.8 9.01-2.3 13.38-3.94-5.15 6.15-11.22 7.74-19 8.88-7.88.57-14.13-2.26-20.21-7.14a30.5 30.5 0 0 1-9.13-18.78c-.15-12.24 2.68-19.96 11.12-28.87 3.92-3.7 3.92-3.7 6.22-5.09l3 1-1.43 1.07c-4.54 3.6-6.76 6.4-8.57 11.93v2h31c-2.24-10.1-2.24-10.1-7-14l-1-1q-3.03-.34-6.06-.56l-3.35-.26-2.59-.18 1-2c6.52-1.94 16.14-2.1 21.63 2.38M1017.5 1130.31c3.25 3.5 4.74 6.01 4.77 10.8l.03 2.41v2.6l.09 5.46.07 8.6q.03 4.16.1 8.3v2.58c.09 5.34.75 9.26 3.44 13.94 3.69.94 3.69.94 7 1v2h-27v-2l3.38-.38c3.62-.62 3.62-.62 5.62-2.62.23-3.09.33-6.08.34-9.17q0-1.37.02-2.78l.01-5.82q.01-4.43.08-8.87l.01-5.66.04-2.67c-.04-5.5-.79-8.7-4.5-13.03-3.53-2.36-5.19-2.3-9.37-2.31l-3.4-.05c-3.52.4-5.27 1.51-8.23 3.36l-3-1c8.06-6.98 20.87-12.28 30.5-4.69M1097.5 1129.63c3.54 3.36 5.24 6.65 5.71 11.56.04 2.18.04 2.18-.21 5.81-1 1-1 1-4.33 1.11l-4.42-.01h-2.35l-7.46-.04-5.05-.01-12.39-.05v-1l28-2c-2.33-10.47-2.33-10.47-6-13.14-4.11-1.77-8.58-1.77-13-1.86v-2c7.31-1.46 14.65-1.56 21.5 1.63M1145 1129c1.32 3.62 2 6.1 2 10l2 1-1 2q-.16 4.18-.17 8.37v2.52l-.01 5.28q-.01 4.04-.04 8.07l-.03 7.56c.03 7.15.03 7.15 2.25 10.2 2.57 1.28 4.77 1.33 7.63 1.56l3.03.26 2.34.18v2h-33v-2l3.38-.37c3.62-.63 3.62-.63 5.62-2.63.25-1.97.25-1.97.26-4.42l.02-2.77-.01-3v-9.5q-.01-4.95 0-9.88v-9.24l-.01-2.77v-2.45c-.26-1.97-.26-1.97-2.26-3.97-3.84-.26-7.27.12-11 1 1.56-3.11 4.15-3.73 7.25-5.19l3.45-1.66c3.41-1.19 4.92-1.25 8.3-.15M1170 1128c2.3 1.53 2.3 1.53 4 3-.87 3.88-.87 3.88-2 5-4.35.48-6.34-.8-10-3-3.17-.3-4.96-.01-8 1v-2c4.82-4.31 9.63-5.17 16-4M1226.06 1127.06l2.48.1c3.63 1.24 5.62 3.57 7.46 6.84.7 3.2.68 6.33.64 9.6l.03 2.76q.03 4.35.02 8.7 0 4.36.05 8.71.02 2.7 0 5.41c.03 4.4.2 7.82 2.26 11.82l9 1c-1.82 3.64-6.3 4.68-10 6-3.06.25-3.06.25-5 0-3-5.75-3-5.75-3-8l-3-1 3-1v-18l-3-1 3-1q-.14-4.56-.31-9.13l-.07-2.59c-.22-5.18-.96-8.7-3.62-13.28v-2l-12-1 1-2c3.69-1.04 7.26-1.1 11.06-.94M1284 1128c2 4.12 2.18 7.45 2 12h2v2h-2q-.04 7.32.04 14.62.03 2.5 0 4.97c-.08 13.77-.08 13.77 2.48 17.8a24 24 0 0 0 5.48 3.61l3 2q3.32.9 6.69 1.63l3.57.78q1.34.3 2.74.59c-2 2-2 2-5.81 2.38-4.29-.07-7.94-1.1-12.01-2.4l-3.52-1.12-2.66-.86q.1 7.8.26 15.59l.09 5.3q.05 3.8.14 7.63l.02 2.39c.09 3.26.27 5.68 1.85 8.57 2.11 1.96 3.82 2.22 6.64 2.52v2h-22v-2l1.88-.25c2.12-.75 2.12-.75 3.24-2.3 1.24-3.46 1.17-6.81 1.16-10.44l.01-2.43.01-7.95.01-5.53v-11.59q0-7.43.04-14.84.03-5.7.01-11.42 0-2.74.02-5.47v-7.66l.01-2.27c-.04-4.43-.52-7.41-3.39-10.85-3.69-.81-3.69-.81-7-1 2.58-5.16 9.74-6.53 15-6M1670 1128c3.5 7.23 3.13 15.41 2.96 23.27l-.07 5.19q-.05 4.04-.14 8.07-.07 3.93-.1 7.87l-.08 2.43c-.01 3.62.1 5.72 2.28 8.67 2.72 1.9 4.6 2.1 7.9 2.25l2.98.17 2.27.08v2h-32v-2l8-1c1.18-4.69 1.18-9.26 1.2-14.06l.04-8.13q.02-4.2.07-8.4l.02-5.35.04-2.52c-.02-4.62-.22-7.88-3.37-11.54-3.69-.81-3.69-.81-7-1 2.34-4.68 10.1-6.63 15-6M1695 1128l3 2c.25 2.56.25 2.56 0 5-1 1-1 1-3.25 1.25-3.29-.3-4.95-1.57-7.75-3.25-2.62-.19-2.62-.19-5 0h-3c4.9-5.15 8.95-6.15 16-5M1762.5 1129.75c2.74 2.46 4.18 3.8 5.5 7.25v11h-40c1.4 23.91 1.4 23.91 9.25 31.5 5.37 4.35 9.97 5.92 16.94 5.25a42 42 0 0 0 8.81-2.75h3v2c-9.68 5.18-17.32 7.23-28.2 4.43-7.12-2.37-11.23-5.92-14.61-12.56a40.3 40.3 0 0 1-2.28-27.97c2.9-6.04 6.86-12.28 12.96-15.34l2.13-.56v2l-2.37 2.19C1731 1139 1731 1139 1729 1146h31c-2.29-10.29-2.29-10.29-6-14-2.57-1.28-4.77-1.33-7.62-1.56l-3.04-.26-2.34-.18 1-2a29 29 0 0 1 20.5 1.75M1839.25 1129.75c2.75 2.25 2.75 2.25 3.81 4.81-.06 2.44-.06 2.44-2.06 5.44-4.88-.42-6.74-2.5-10-6-3.19-2.88-5.49-3.43-9.75-3.69l-2.98-.2-2.27-.11v-2c7.52-1.48 16.25-1.83 23.25 1.75M1947 1128l21 1-4 1v2h-2a124 124 0 0 0 7.16 17.97c2.63 5.54 5.1 11.13 7.53 16.75 1.36 3.14 2.73 6.24 4.31 9.28h2l1.36-3.55c5.48-14.29 5.48-14.29 8.39-20.51 6.25-13.43 6.25-13.43 5.25-18.94-2.92-1.94-4.62-2.45-8-3v-1l21-1v2l-2.19.56c-7 3.58-9.03 11.17-11.56 18.12-1.13 3-2.38 5.86-3.75 8.76-2.45 5.25-4.33 10.63-6.23 16.1-1.82 4.95-4 9.7-6.27 14.46h-3a766 766 0 0 1-11.56-25.12c-13.08-30.14-13.08-30.14-19.44-32.88zM2073.5 1129.63c3.54 3.36 5.24 6.65 5.71 11.56.04 2.18.04 2.18-.21 5.81-1 1-1 1-4.33 1.11l-4.42-.01h-2.35l-7.46-.04-5.05-.01-12.39-.05v-1l28-2c-2.33-10.47-2.33-10.47-6-13.14-4.11-1.77-8.58-1.77-13-1.86v-2c7.31-1.46 14.65-1.56 21.5 1.63M2120 1128c2.68 4.02 2.16 6.24 2 11l3 1-2 3c-.2 2.7-.28 5.3-.27 8v7.33q.02 3.79 0 7.58v7.11c.03 4.08.31 7.37 2.27 10.98 2.57 1.28 4.77 1.33 7.63 1.56l3.03.26 2.34.18v2h-32v-2l3.38-.31 3.62-.69c2.07-3.11 2.25-3.8 2.26-7.33l.02-2.64-.01-2.84v-9.05q-.02-4.7 0-9.38v-8.79l-.01-2.64v-2.32c-.26-2.01-.26-2.01-2.26-5.01-3.83-.34-7.27.12-11 1v-2q3.09-1.5 6.19-3l3.48-1.69c3.14-1.23 5.02-1.87 8.33-1.31M2140.5 1127.69l2.9-.05c2.6.36 2.6.36 4.46 1.71 1.14 1.65 1.14 1.65.83 4.34l-.69 2.3c-4.65.33-6.4-.2-10-3-3.14-.3-4.98 0-8 1 2.27-5.23 4.95-6.28 10.5-6.3M1357 1129h21l-4 2c-1 1-1 1-1.28 3.6.34 4.14 1.84 7.13 3.78 10.71l3.35 6.43c2.28 4.47 4.35 9.03 6.45 13.59a87 87 0 0 0 4.43 8.53c1.27 2.14 1.27 2.14 1.27 4.14h2l1-3c1.41 4.23-.27 7.15-1.81 11.13l-.83 2.24c-2.1 5.5-2.1 5.5-4.36 6.63l.25-3.94c-.01-5.44-1.73-9.29-4.19-14.06q-.6-1.22-1.23-2.48a645 645 0 0 0-9.51-18.29q-2.87-5.27-5.49-10.67l-1.06-2.2-1.94-4.1c-2.18-4.51-4.07-6.5-7.83-10.26M1400 1129h19l-5 4c-3.07 3.32-4.2 7.13-5.5 11.38a76 76 0 0 1-5.5 13.62h-1c-.42-4.67 1.08-7.79 3-12 1.79-4.52 2.2-8.14 2-13l-7-3zM2169 1129h19l-4 3c.5 5.44 1.98 9.55 4.56 14.38l2.18 4.2 1.13 2.18c2.24 4.43 4.29 8.96 6.34 13.48a63 63 0 0 0 4.96 9c2.71 4.09 2.71 4.09 2.83 6.76a77 77 0 0 1-2.5 7.38l-.81 2.1A205 205 0 0 1 2193 1212c-1-3-1-3-.1-5.35l1.35-2.71q1.45-2.93 2.75-5.94l1-2.2c2.01-5.12 2.28-8.28.2-13.43q-1.42-3-2.95-5.93l-1.55-3.18a502 502 0 0 0-4.7-9.26l-1.3-2.54q-2.76-5.33-5.63-10.6a196 196 0 0 1-4.04-7.87l-.95-1.94-2.47-5.2C2173 1133 2173 1133 2169 1129M2210 1129h21l-4 3a16 16 0 0 0-4.75 6.84l-.9 2.22-.91 2.32A1757 1757 0 0 0 2215 1157h-1c-.38-4.07.7-6.98 2.19-10.74.9-2.5 1.58-4.98 2.18-7.57l.6-2.5c.03-2.19.03-2.19-1.23-3.94-2.45-1.76-4.79-1.92-7.74-2.25zM440.38 1130.25l1.62.75-2.25 1.88c-3.69 3.62-5.08 8.33-6.75 13.12-2.37.13-2.37.13-5 0l-2-2c.1-3.5.9-4.89 3.19-7.56 7.57-6.57 7.57-6.57 11.19-6.19M508 1130h2l-1 2.06c-1.5 4.4-1.67 8.1-.06 12.5 4.47 5.29 10.76 8.32 16.81 11.5 4.65 2.5 8.88 4.77 11.06 9.82.55 6.24.16 10.5-2.81 16.12-2.06 2.44-2.06 2.44-4 4h-2v-2h2c1.03-5.55 1.93-10.47-1.45-15.41-3.95-4.05-9.17-6.5-14.25-8.83-5.54-2.54-10.08-4.79-12.3-10.76-.83-5.14-1.04-10.07 1.88-14.56A88 88 0 0 1 508 1130M573 1130l-.97 1.73a15 15 0 0 0-1.47 6.64l-.12 2.22c1.01 4.36 3.75 7.27 7.45 9.6q3.2 1.66 6.49 3.18c12.87 6.51 12.87 6.51 15.62 12.63 1.08 5.46.75 9.55-1.81 14.5-3.43 3.91-3.43 3.91-5.19 5.5l-2-1 2-3c.75-5.13 1.01-9.55-2-13.87-4.47-3.17-8.9-6.09-13.82-8.53-6.12-3.08-9.83-5-12.18-11.6-.84-5.74-.19-10.04 3-15 2.5-3 2.5-3 5-3M644 1130a66 66 0 0 1-3.44 6.31A78 78 0 0 0 636 1146q-2.5.06-5 0c-1-1-1-1-1.37-3.75.5-4.39 1.97-5.5 5.37-8.25 6.07-4 6.07-4 9-4"/><path fill="#6b4a42" d="M718 1130v2l-1.37 1.31c-3.07 3.19-3.59 6.15-3.94 10.5.19 6.31 2.42 12.1 6.64 16.87 3.41 2.7 7.58 3.97 11.67 5.32v1l-2.89-.21c-9.91-.43-9.91-.43-13.15 1.3-2.4 2.66-2.99 5.1-3.52 8.6.56 3.31.56 3.31 2.28 4.94 7.88 4.73 19.05 3.71 27.94 3.76 6.13.15 11.33.8 16.34 4.61 3.25 5.38 3.7 9.96 2.64 16.09-2.39 9.23-9.6 16.22-17.62 20.97-8.96 4.16-21.39 5.48-31.02 2.94-4.15-2.47-7.31-4.97-10-9-.83-5.73-1.26-11.53 1.43-16.78A59 59 0 0 1 709 1198l2.1-2.24c1.9-1.76 1.9-1.76 3.9-1.76v-3l-2.81-.87C709 1189 709 1189 706 1187c-1.32-4.16-1.32-8 0-12.12 2.6-3.75 5.66-6.8 9-9.88l-2.25-1.62c-4.06-3.51-6.45-6.6-7.35-11.97-.05-7.28 0-12.42 5-18 2.63-2.32 4.02-3.41 7.6-3.41m-3 64v2l-3 1c-3.79 4.98-4.7 9.04-4.45 15.28.91 5.5 3.6 9.28 7.95 12.66 8.1 3.44 18.36 3.15 26.5.06q3.04-1.43 6-3v-2h2c3.79-4.97 6.15-9.23 5.81-15.56-1.11-4.72-2.32-7.42-6.37-10.19-5.88-3.01-11.31-2.43-17.88-2.44l-3.8-.03-3.63-.01-3.34-.01c-2.79.24-2.79.24-5.79 2.24M1213 1130v2l-1.75 1.56c-2.26 2.45-3 4.08-4.19 7.13-1.73 4.16-1.73 4.16-4.68 5.5-2.38-.19-2.38-.19-4.38-2.19-.56-2.25-.56-2.25 0-5 3.79-4.23 9.18-9 15-9M1882 1130l3 1-2.31 1.69c-5.29 4.55-6.69 9.62-7.69 16.31-.7 10.88 1.75 21.5 8.7 30.11 5.69 5.98 11.42 7.28 19.3 8.89-2.35 2.35-2.86 2.3-6.06 2.31-8.7-.23-15.59-3.4-21.94-9.31-6.15-6.66-9.21-15.98-9-25 1.52-11.12 6.16-17.79 14.39-25.07zM1071 1132c0 2 0 2-1.87 3.94L1067 1138c-2 3-2 3-2 6.5s0 3.5-2 6.5a39 39 0 0 0 7 26c4.1 4.42 7.91 7.07 14 8 7.1.08 12.75-1.76 19-5-1.75 4.2-3.71 5.28-7.73 7.11-9.1 3.56-17.45 3.54-26.5-.25-6.44-3.12-9.96-8.43-12.77-14.86-2.46-9.4-3.03-18.13 1.49-26.88 7.89-13.12 7.89-13.12 13.51-13.12M1810 1132v2l-5 5c-4.53 6.8-3.29 16.83-2.75 24.63 1.49 6.7 4.4 11.98 9.75 16.37 9.06 5.36 16.7 5.44 27 4v2c-9.83 3.64-17 4.5-27.19 2.31-8.1-3.78-14.64-9.86-17.81-18.31-1.69-10.34-1.62-20.23 4.43-29.1 7.36-8.9 7.36-8.9 11.57-8.9M2047 1132c0 2 0 2-1.87 3.94L2043 1138c-2 3-2 3-2 6.5s0 3.5-2 6.5a39 39 0 0 0 7 26c4.1 4.42 7.91 7.07 14 8 7.1.08 12.75-1.76 19-5-1.75 4.2-3.71 5.28-7.73 7.11-9.1 3.56-17.45 3.54-26.5-.25-6.44-3.12-9.96-8.43-12.77-14.86-2.46-9.4-3.03-18.13 1.49-26.88 7.89-13.12 7.89-13.12 13.51-13.12M1215 1165l-1.71 1.02-2.23 1.36-2.21 1.33C1207 1170 1207 1170 1206 1172c-.29 4.27.32 7.1 2 11l5.25.06 2.95.04c2.46-.09 4.46-.4 6.8-1.1v2c-6.65 4.09-12.23 5.04-20 4-3.25-1.31-3.25-1.31-5-4-.75-3.82-.8-7.18 0-11 2.18-2.5 3.27-3.47 6-5l1.82-1.21c3.48-2.24 5.26-3.1 9.18-1.79M439 1167l-2 1.44c-2.57 3.29-2.44 5.38-2.43 9.44.54 2.65 1.23 3.56 3.43 5.12 2.09.33 2.09.33 4.38.25l2.39-.08c2.47-.19 4.83-.55 7.23-1.17-3.58 3.98-6.6 5.7-11.94 6.37-8.14.18-8.14.18-12.31-2.3-2.36-4.13-2.8-7.43-1.75-12.07 3.22-4.24 7.54-8.82 13-7M640.38 1166.25l1.62.75q-1.27 1.3-2.56 2.63c-2.1 2.52-2.44 3.05-2.44 6.5 1.02 2.93 1.87 4.63 4 6.87 2.34.43 2.34.43 4.94.31l2.59-.07c2.25-.22 4.3-.62 6.47-1.24-3.58 3.98-6.61 5.67-11.94 6.4-7.94.25-7.94.25-10.95-1.5-2.45-2.63-3.12-4.95-3.61-8.46.76-5.26 2.32-7.49 6.44-10.82 3.06-1.62 3.06-1.62 5.43-1.37M500 1172h2c1.6 2.43 2.96 4.97 4.37 7.52 2.05 3.12 4 4.89 7.52 6.16 2.64.4 5.19.41 7.86.38l2.98-.02 2.27-.04v2c-8.25 1.87-16.5 2.23-24-2-2.68-2.68-2.39-4.4-2.62-8.12l-.23-3.33zM564 1173h2l.7 1.6c2.1 4.56 3.83 7.82 8.3 10.4a27.7 27.7 0 0 0 16 1l-1 2c-8 2.22-16.74 2.1-24-2-2.48-2.47-2.39-3.64-2.69-7.06l-.26-2.73-.05-2.21zM1387 1195c1.07 2.73 1.08 3.8 0 6.58l-1.44 2.67-1.43 2.7-1.13 2.05c-1.07-2.73-1.08-3.8 0-6.58l1.44-2.67 1.43-2.7zM1379 1213l1 3c-1.81 3.19-1.81 3.19-4 6h-2l-.56 1.75c-2.41 3.77-6.33 5.46-10.44 7-4.75.6-8.86.9-13-1.75-.12-2.37-.12-2.37 0-5l2-2c2.98.26 5.35.65 8 2.06 2.97 1.4 4.74 1.45 8 .94 4.86-3.06 8.1-7.12 11-12M2191 1212l1 3c-3.84 6.55-9.26 12.45-16.31 15.38-4.45.75-8.27.36-12.69-.38-1.12-2.31-1.12-2.31-2-5l2-3c6.63.75 6.63.75 10 3 3.67.49 5.65.17 9-1.44 3.9-3.34 6.36-7.18 9-11.56"/></svg>