<?xml version="1.0" encoding="UTF-8"?>
<svg xmlns="http://www.w3.org/2000/svg" viewBox="683.5 -106 1100 1100">
<path d="M0 0 C2.458 0.84 3.693 1.389 4.878 3.746 C5.057 4.446 5.237 5.146 5.422 5.867 C5.53 6.264 5.53 6.264 6.078 8.271 C6.3 9.13 6.522 9.99 6.75 10.875 C9.517 20.834 13.141 30.25 17.097 39.788 C18.358 42.877 19.522 45.998 20.688 49.125 C22.41 53.624 24.329 57.917 26.547 62.191 C27.709 64.438 28.839 66.694 29.953 68.965 C30.301 69.671 30.648 70.377 31.007 71.104 C31.693 72.499 32.377 73.895 33.058 75.292 C35.102 79.419 37.18 83.346 40 87 C40.99 87 41.98 87 43 87 C43.33 86.051 43.66 85.103 44 84.125 C46.273 78.777 50.025 74.195 54 70 C54.66 70 55.32 70 56 70 C56 69.34 56 68.68 56 68 C65.204 59.269 77.513 53.63 88.899 48.361 C99.159 43.585 108.835 38.149 117.914 31.348 C120.072 29.953 121.431 29.157 124 29 C127.136 30.513 127.904 31.753 129.168 35.012 C129.336 35.618 129.336 35.618 130.188 38.688 C133.882 50.936 140.842 61.503 148 72 C156.156 84.151 162.456 99.199 159.603 114.069 C158.546 118.752 157.299 123.379 156 128 C161.694 126.663 167.131 124.996 172.625 123 C186.598 117.978 186.598 117.978 193.5 116.688 C198.846 115.666 204.144 114.513 209.439 113.258 C228.555 108.752 248.297 104.339 268 104 C269.223 103.961 270.447 103.923 271.707 103.883 C278.318 103.754 278.318 103.754 281 104 C281.66 104.66 282.32 105.32 283 106 C282.811 110.662 280.685 112.776 277.5 116 C261.695 132.616 250.09 154.635 245 177 C248.699 175.293 252.011 173.366 255.375 171.062 C269.498 161.529 287.921 155.688 305 155 C306.057 154.948 307.114 154.897 308.203 154.844 C321.785 154.497 334.729 156.994 347.922 160.001 C356.744 162.01 364.901 163.817 374 163 C376.541 162.788 379.083 162.58 381.625 162.375 C382.793 162.259 383.961 162.143 385.164 162.023 C386.1 162.016 387.036 162.008 388 162 C388.66 162.66 389.32 163.32 390 164 C389.721 169.302 388.537 173.852 386.719 178.824 C385.143 183.595 384.86 188.099 384.789 193.109 C384.763 194.51 384.737 195.911 384.71 197.312 C384.696 198.037 384.683 198.763 384.67 199.511 C384.423 211.885 384.063 223.941 381 236 C380.711 237.158 380.423 238.315 380.125 239.508 C376.259 253.393 369.166 264.227 358 273.375 C355.025 275.978 354.611 276.408 354 280 C354.681 280.075 355.361 280.15 356.062 280.227 C364.632 281.389 372.162 284.027 380.125 287.246 C381.784 287.913 383.454 288.552 385.125 289.188 C402.218 295.876 416.582 306.3 430.669 317.866 C435.594 321.898 440.61 325.787 445.688 329.625 C453.013 335.176 460.045 340.996 467 347 C469.162 348.859 471.329 350.713 473.5 352.562 C474.034 353.02 474.569 353.477 475.119 353.948 C478.335 356.674 481.629 359.229 485.03 361.718 C493.028 367.603 500.9 374.748 505 384 C503.875 386 503.875 386 502 388 C498.002 388.301 494.804 387.796 491 386.625 C473.823 382.138 455.312 382.633 437.688 382.688 C436.623 382.688 435.558 382.688 434.46 382.688 C418.766 382.704 403.488 383.287 388 386 C391.366 389.768 395.135 391.982 399.438 394.5 C407.607 399.46 414.262 405.268 421 412 C421.639 412.632 422.278 413.265 422.937 413.916 C426.782 417.72 430.604 421.545 434.406 425.391 C435.826 426.824 437.254 428.249 438.684 429.672 C451.071 442.122 461.211 456.055 469.966 471.24 C471.597 474.016 473.339 476.72 475.062 479.438 C478.341 484.744 481.187 490.166 483.921 495.764 C486.048 500.117 488.264 504.406 490.563 508.671 C501.081 528.199 501.081 528.199 500 537 C498.938 539.062 498.938 539.062 497 540 C491.93 539.588 488.131 538.288 483.562 536.125 C456.465 524.645 422.069 529.567 395.062 538.75 C394.025 539.101 392.987 539.451 391.918 539.813 C383.631 542.671 375.777 545.954 368 550 C367.34 550.341 366.68 550.683 366 551.035 C360.232 554.033 354.503 557.104 348.786 560.198 C340.015 564.941 331.327 569.42 322 573 C321.322 573.272 320.644 573.544 319.945 573.824 C295.311 583.484 267.097 587.034 241.328 579.523 C239 579 239 579 237 580 C237.457 581.542 237.916 583.084 238.375 584.625 C238.647 585.543 238.919 586.461 239.199 587.406 C239.795 589.335 240.471 591.238 241.188 593.125 C242.249 596.883 242.134 600.103 242 604 C238.499 605.226 237.246 605.118 233.836 603.488 C232.675 602.774 231.522 602.048 230.375 601.312 C214.866 591.903 200.084 590.008 182.562 594.25 C175.394 596.036 168.289 598.017 161.199 600.09 C140.693 605.924 117.96 607.438 97 603 C95.474 602.716 93.948 602.433 92.422 602.152 C78.382 599.489 65.908 595.783 55 586 C54.67 585.01 54.34 584.02 54 583 C49.162 584.371 46.907 587.134 44.062 591.062 C43.626 591.65 43.19 592.237 42.741 592.842 C41.48 594.551 40.237 596.273 39 598 C38.416 598.804 37.832 599.609 37.23 600.438 C29.098 612.111 24.829 623.102 24.516 637.278 C24.353 641.669 23.591 644.441 21 648 C18.348 648.027 18.348 648.027 15 647 C12.716 644.452 11.126 641.526 9.438 638.562 C8.393 636.823 7.343 635.086 6.289 633.352 C5.751 632.462 5.212 631.573 4.657 630.657 C-1.63 620.576 -8.77 610.886 -16.938 602.254 C-19.92 598.995 -22.54 595.476 -25.176 591.934 C-27.141 589.85 -28.202 589.352 -31 589 C-30.941 587.997 -30.881 586.994 -30.82 585.961 C-31.015 581.673 -32.153 578.475 -33.875 574.625 C-39.462 561.362 -40.599 548.504 -39.312 534.188 C-39.221 533.144 -39.129 532.101 -39.034 531.026 C-37.726 517.618 -34.562 503.914 -27.348 492.352 C-26 490 -26 490 -26 487 C-29.473 487.603 -32.495 488.538 -35.75 489.875 C-42.626 492.432 -49.611 493.476 -56.821 494.628 C-58.923 494.987 -61.001 495.404 -63.086 495.852 C-79.858 499.424 -99.249 499.515 -115.812 494.375 C-126.67 491.184 -135.366 492.343 -145.165 497.593 C-147.13 498.699 -149.068 499.838 -151 501 C-152.098 501.659 -153.197 502.317 -154.328 502.996 C-161.17 507.356 -167.148 512.397 -173 518 C-173.887 518.825 -174.774 519.65 -175.688 520.5 C-194.336 540.66 -198.861 567.928 -204 594 C-203.227 593.783 -202.453 593.567 -201.656 593.344 C-188.234 589.756 -180.862 591.343 -168.658 597.839 C-161.765 601.462 -154.927 604.216 -147.438 606.375 C-146.624 606.613 -145.811 606.852 -144.973 607.097 C-131.88 610.671 -118.774 611.33 -105.292 611.261 C-102.805 611.25 -100.318 611.261 -97.83 611.273 C-74.21 611.297 -57.388 603.605 -37.122 592.12 C-35 591 -35 591 -32 590 C-33.039 597.507 -38.619 602.039 -44.25 606.688 C-60.358 618.66 -80.998 621.384 -100.5 621.188 C-101.716 621.187 -102.931 621.186 -104.184 621.186 C-116.828 621.125 -128.745 620.169 -141.062 617.25 C-141.603 617.13 -141.603 617.13 -144.338 616.523 C-154.763 614.1 -164.256 610.3 -173.438 604.812 C-185.311 597.748 -185.311 597.748 -193 599 C-195.519 600.131 -197.662 601.504 -200 603 C-200.66 603 -201.32 603 -202 603 C-203.969 606.593 -204.694 609.981 -205.438 613.977 C-206 616 -206 616 -208 618 C-210.935 617.633 -211.864 617.136 -214 615 C-214.309 610.673 -214.055 606.851 -213.172 602.613 C-212.991 601.739 -212.81 600.866 -212.624 599.965 C-212.418 598.987 -212.212 598.008 -212 597 C-211.885 596.447 -211.885 596.447 -211.306 593.648 C-210.546 589.993 -209.774 586.34 -209 582.688 C-208.87 582.063 -208.87 582.063 -208.211 578.904 C-207.956 577.702 -207.7 576.5 -207.438 575.262 C-207.323 574.72 -207.323 574.72 -206.746 571.979 C-206 569 -206 569 -204.91 566.359 C-204 564 -204 564 -204 560 C-207.079 561.38 -209.243 563.001 -211.688 565.312 C-232.309 583.484 -264.433 580.579 -290 579 C-295.377 578.589 -300.678 577.872 -306 577 C-307.45 576.791 -308.901 576.584 -310.352 576.379 C-320.89 574.827 -330.872 572.269 -341 569 C-341.662 568.791 -342.323 568.582 -343.005 568.366 C-350.386 566.03 -357.601 563.439 -364.715 560.375 C-367.217 559.328 -369.718 558.334 -372.254 557.375 C-380.629 554.208 -388.605 550.798 -396.57 546.695 C-416.804 536.694 -439.874 528.951 -462.312 535.625 C-470.587 538.71 -477.37 543.506 -482.746 550.52 C-484 552 -484 552 -487 554 C-489.687 553.625 -489.687 553.625 -492 553 C-493.823 547.531 -492.516 541.669 -492 536 C-491.934 534.897 -491.869 533.793 -491.801 532.656 C-490.149 513.945 -482.099 495.276 -473 479 C-472.546 478.157 -472.092 477.314 -471.625 476.445 C-463.881 462.754 -453.773 450.226 -443.338 438.51 C-442.058 437.066 -440.8 435.602 -439.543 434.137 C-439.185 433.722 -439.185 433.722 -437.375 431.625 C-436.764 430.916 -436.153 430.207 -435.523 429.477 C-434 428 -434 428 -432 428 C-431.34 426.68 -430.68 425.36 -430 424 C-429.34 424 -428.68 424 -428 424 C-427.878 423.71 -427.878 423.71 -427.258 422.242 C-424.853 417.956 -420.734 415.111 -417 412 C-416.38 411.482 -415.76 410.964 -415.121 410.43 C-402.942 400.802 -388.437 394.009 -373.555 389.895 C-371 389 -371 389 -370 387 C-380.617 385.458 -390.981 384.698 -401.727 384.734 C-403.172 384.733 -404.618 384.731 -406.064 384.729 C-409.064 384.726 -412.064 384.73 -415.063 384.739 C-418.866 384.751 -422.669 384.744 -426.472 384.732 C-429.448 384.725 -432.423 384.727 -435.399 384.732 C-436.799 384.734 -438.2 384.732 -439.601 384.727 C-462.068 384.668 -484.142 387.755 -500.711 404.047 C-503.068 406.058 -505.078 407.029 -508 408 C-508.66 407.34 -509.32 406.68 -510 406 C-509.703 401.75 -508.726 399.066 -506.188 395.688 C-505.56 394.833 -504.932 393.978 -504.285 393.098 C-503.531 392.075 -502.777 391.053 -502 390 C-500.551 387.951 -499.113 385.894 -497.674 383.838 C-480.907 359.891 -463.211 337.979 -440 320 C-439.446 319.563 -438.893 319.126 -438.322 318.676 C-428.178 310.69 -417.575 303.882 -406.411 297.41 C-403.892 295.937 -401.399 294.426 -398.906 292.91 C-394.649 290.35 -390.328 288.012 -385.875 285.812 C-385.55 285.648 -385.55 285.648 -383.902 284.814 C-379.969 282.856 -376.009 281.194 -371.879 279.695 C-369.21 278.708 -366.611 277.569 -364 276.438 C-359.362 274.484 -354.918 273.04 -350 272 C-350.473 268.881 -351.247 266.423 -352.5 263.5 C-354.452 258.946 -355.109 254.979 -355.176 250.051 C-355.2 249.119 -355.223 248.188 -355.248 247.229 C-355.291 245.304 -355.322 243.38 -355.342 241.455 C-355.867 223.688 -367.364 211.894 -378.512 199.291 C-379.914 197.703 -381.302 196.103 -382.688 194.5 C-383.496 193.582 -384.304 192.664 -385.137 191.719 C-387.233 188.661 -387.944 186.702 -388 183 C-387.035 181.191 -387.035 181.191 -385 180 C-382.433 179.507 -380.027 179.17 -377.438 178.938 C-375.98 178.778 -374.523 178.617 -373.066 178.453 C-372.363 178.376 -371.659 178.3 -370.934 178.221 C-358.684 176.823 -347.323 172.576 -336.652 166.48 C-317.065 155.547 -294.755 152.393 -272.888 158.166 C-270.91 158.738 -268.955 159.355 -267 160 C-266.679 160.104 -266.679 160.104 -265.054 160.633 C-251.183 165.302 -237.957 173.148 -228 184 C-228 184.66 -228 185.32 -228 186 C-226.68 186 -225.36 186 -224 186 C-234.358 158.071 -234.358 158.071 -241.002 145.839 C-242.046 143.915 -243.06 141.978 -244.074 140.039 C-249.481 129.902 -255.826 119.174 -264 111 C-264.125 108.5 -264.125 108.5 -264 106 C-263.67 105.67 -263.34 105.34 -263 105 C-259.443 105.279 -256.634 105.661 -253.469 107.355 C-248.7 109.616 -243.794 110.783 -238.688 112.062 C-237.693 112.318 -236.698 112.574 -235.674 112.838 C-219.228 117.039 -219.228 117.039 -213.062 117.562 C-210.644 117.771 -209.183 117.909 -207 119 C-205.182 119.233 -203.357 119.417 -201.531 119.578 C-184.837 121.162 -169.275 123.417 -153.848 130.301 C-152 131 -152 131 -149 131 C-149.035 129.744 -149.07 128.489 -149.105 127.195 C-149.378 113.561 -148.806 104.689 -139.84 93.836 C-138 92 -138 92 -136 92 C-135.887 91.742 -135.887 91.742 -135.312 90.438 C-134 88 -134 88 -131.688 85.25 C-125.861 77.228 -122.409 63.861 -123 54 C-123.73 50.527 -124.58 47.149 -125.602 43.75 C-126 41 -126 41 -124.777 39.113 C-121.895 37.308 -119.146 38.299 -116 39 C-115.338 39.156 -114.675 39.312 -113.993 39.473 C-107.449 40.936 -100.924 41.462 -94.248 41.937 C-76.464 43.203 -60.092 44.918 -46 57 C-45.285 57.594 -44.569 58.189 -43.832 58.801 C-38.126 63.972 -35.075 70.011 -32 77 C-29 76 -29 76 -27.719 73.953 C-25.529 69.097 -23.805 64.554 -22.812 59.312 C-21.191 51.495 -17.97 44.418 -14.841 37.1 C-10.05 25.873 -5.755 14.507 -2.641 2.688 C-2 1 -2 1 0 0 Z M-116 46 C-116.33 46.33 -116.66 46.66 -117 47 C-116.994 48.542 -116.943 50.084 -116.875 51.625 C-116.75 67.702 -121.745 81.771 -132 94 C-133.749 95.772 -135.52 97.523 -137.312 99.25 C-144.993 106.695 -146.112 114.081 -146.312 124.625 C-146.35 125.917 -146.387 127.208 -146.426 128.539 C-146 132 -146 132 -144.348 134.258 C-141.705 136.219 -139.054 137.745 -136.125 139.25 C-135.548 139.554 -135.548 139.554 -132.629 141.09 C-132.03 141.404 -131.43 141.719 -130.813 142.042 C-115.377 150.195 -101.708 160.252 -88 171 C-87.547 171.347 -87.547 171.347 -85.254 173.102 C-83 175 -83 175 -81 178 C-78.647 177.802 -78.647 177.802 -76 177 C-74.657 174.925 -74.657 174.925 -73.641 172.172 C-73.252 171.155 -72.863 170.137 -72.462 169.089 C-72.062 167.987 -71.662 166.885 -71.25 165.75 C-70.376 163.456 -69.5 161.163 -68.621 158.871 C-68.184 157.716 -67.747 156.561 -67.296 155.371 C-65.412 150.47 -63.387 145.635 -61.312 140.812 C-60.942 139.95 -60.571 139.088 -60.189 138.2 C-57.055 130.99 -53.599 123.989 -50 117 C-48.832 114.625 -47.666 112.25 -46.5 109.875 C-44.23 105.299 -41.785 100.922 -39.125 96.562 C-34.562 88.73 -34.562 88.73 -35 84 C-38.272 76.349 -43.978 69.661 -50 64 C-50.66 64 -51.32 64 -52 64 C-52 63.34 -52 62.68 -52 62 C-53.617 60.633 -53.617 60.633 -55.875 59.125 C-56.235 58.879 -56.235 58.879 -58.055 57.633 C-66.61 52.89 -74.907 51.091 -84.562 49.875 C-85.176 49.793 -85.176 49.793 -88.281 49.378 C-91.852 48.905 -95.426 48.451 -99 48 C-100.857 47.757 -102.714 47.513 -104.57 47.27 C-106.109 47.074 -107.648 46.88 -109.188 46.688 C-109.534 46.643 -109.534 46.643 -111.289 46.419 C-112.855 46.236 -114.427 46.111 -116 46 Z M-1 21 C-4.385 29.084 -7.729 37.182 -11 45.312 C-11.442 46.408 -11.883 47.503 -12.338 48.631 C-14.614 54.333 -16.711 60.003 -18.5 65.875 C-21.17 74.17 -25.307 81.54 -29.467 89.16 C-32.443 94.674 -35.308 100.247 -38.188 105.812 C-38.757 106.909 -39.327 108.005 -39.914 109.134 C-46.435 121.704 -52.727 134.296 -58.312 147.312 C-58.589 147.954 -58.866 148.595 -59.15 149.255 C-64.29 161.173 -69.188 173.18 -73.923 185.265 C-74.921 187.799 -75.937 190.324 -76.961 192.848 C-90.616 226.732 -95.556 260.541 -88.609 296.75 C-88.102 299.456 -87.67 302.152 -87.266 304.875 C-81.276 343.888 -66.403 376.239 -42 407 C-41.503 407.63 -41.007 408.259 -40.495 408.908 C-21.22 433.276 -21.22 433.276 -9.488 442.57 C-7.774 444.217 -6.944 445.834 -6 448 C-6.99 448 -7.98 448 -9 448 C-9 447.34 -9 446.68 -9 446 C-10.724 444.785 -12.506 443.652 -14.312 442.562 C-17.598 440.574 -20.305 438.711 -23 436 C-23.66 436 -24.32 436 -25 436 C-25.66 434.68 -26.32 433.36 -27 432 C-27.66 432 -28.32 432 -29 432 C-29.267 431.403 -29.534 430.806 -29.809 430.191 C-31.025 427.954 -32.204 426.656 -34.062 424.938 C-38.816 420.311 -42.882 415.191 -47 410 C-47.403 409.499 -47.403 409.499 -49.445 406.965 C-55.568 399.271 -60.844 391.187 -65.922 382.773 C-66.845 381.255 -67.795 379.752 -68.75 378.254 C-81.02 358.795 -87.248 334.532 -91 312 C-91.213 310.75 -91.426 309.501 -91.645 308.213 C-97.939 270.681 -98.568 236.59 -84.86 200.41 C-84.668 199.897 -84.668 199.897 -83.695 197.297 C-83.52 196.845 -83.52 196.845 -82.633 194.558 C-81.907 191.623 -82.13 189.875 -83 187 C-87.239 180.687 -93.069 176.228 -99.25 171.945 C-101.753 170.175 -104.045 168.301 -106.375 166.312 C-118.636 156.414 -132.878 148.567 -147.115 141.89 C-149.041 140.98 -150.953 140.044 -152.863 139.102 C-154.138 138.483 -155.412 137.866 -156.688 137.25 C-157.784 136.719 -158.881 136.188 -160.012 135.641 C-170.95 130.908 -182.102 129.01 -193.812 127.5 C-205.117 126.031 -215.996 123.997 -227 121 C-227.846 120.771 -228.691 120.541 -229.563 120.305 C-232.612 119.465 -235.653 118.6 -238.695 117.734 C-241.917 117.019 -244.714 116.86 -248 117 C-247.457 120.543 -246.688 122.815 -244.562 125.688 C-236.107 137.923 -229.65 151.285 -224 165 C-223.624 165.865 -223.247 166.73 -222.859 167.621 C-220.718 172.659 -219.035 177.83 -217.438 183.062 C-217.239 183.692 -217.041 184.322 -216.837 184.97 C-212.898 198.308 -211.406 212.399 -209.938 226.188 C-209.853 226.968 -209.768 227.749 -209.68 228.554 C-208.347 240.919 -207.513 253.267 -206.938 265.688 C-205.961 286.362 -203.973 306.479 -199.688 326.75 C-199.619 327.081 -199.619 327.081 -199.273 328.759 C-196.423 342.407 -191.524 354.258 -184 366 C-183.49 366.859 -182.979 367.717 -182.453 368.602 C-177.721 376.42 -172.034 383.177 -166 390 C-165.582 390.474 -165.582 390.474 -163.469 392.871 C-153.743 403.78 -143.493 412.388 -131 420 C-130.223 420.491 -129.445 420.982 -128.645 421.488 C-97.031 441.134 -53.888 454.82 -17 458 C-17.33 458.66 -17.66 459.32 -18 460 C-63.126 459.169 -115.312 443.124 -151 415 C-151.955 414.27 -152.91 413.541 -153.895 412.789 C-159.029 408.761 -163.284 404.907 -166.879 399.434 C-167.249 398.961 -167.619 398.487 -168 398 C-168.66 398 -169.32 398 -170 398 C-170.24 397.443 -170.48 396.886 -170.727 396.312 C-172.279 393.493 -174.223 391.396 -176.375 389 C-180.955 383.696 -184.659 378.009 -188.25 372 C-188.491 371.597 -188.491 371.597 -189.712 369.559 C-195.83 359.135 -200.732 349.089 -203.625 337.312 C-203.918 336.15 -204.211 334.987 -204.512 333.789 C-207.402 321.964 -209.374 310.057 -211 298 C-211.112 297.22 -211.224 296.439 -211.339 295.635 C-212.698 286.071 -213.133 276.591 -213.375 266.938 C-213.706 254.342 -214.68 241.854 -215.875 229.312 C-215.956 228.424 -216.038 227.536 -216.121 226.621 C-218.446 201.459 -218.446 201.459 -226.438 193.5 C-226.676 193.245 -226.676 193.245 -227.885 191.953 C-229.867 189.886 -231.639 188.178 -234.223 186.906 C-236.581 185.704 -236.892 184.364 -238 182 C-250.013 168.694 -270.184 161.939 -287.726 160.827 C-305.505 160.121 -318.32 162.771 -333.974 170.949 C-347.325 177.874 -360.433 182.646 -375.453 184.605 C-378 185 -378 185 -380 186 C-379.466 190.112 -377.302 192.127 -374.5 195.062 C-373.588 196.037 -372.678 197.014 -371.77 197.992 C-371.308 198.489 -370.846 198.987 -370.37 199.499 C-357.012 214.137 -349.666 227.043 -350.125 247.125 C-350.186 255.006 -348.182 261.904 -343 268 C-339.323 269.13 -336.597 268.936 -332.875 268.125 C-316.149 264.824 -299.482 265.782 -282.657 267.701 C-280.943 267.894 -279.228 268.076 -277.511 268.244 C-260.95 269.887 -236.435 274.091 -225 287.312 C-224.67 287.869 -224.34 288.426 -224 289 C-224.767 288.564 -225.534 288.129 -226.324 287.68 C-241.503 279.535 -258.09 275.743 -275 273 C-275.877 272.83 -276.754 272.659 -277.657 272.484 C-281.73 271.894 -285.719 271.789 -289.828 271.719 C-290.243 271.71 -290.243 271.71 -292.344 271.663 C-295.877 271.585 -299.41 271.516 -302.943 271.448 C-305.53 271.396 -308.117 271.339 -310.703 271.281 C-311.505 271.268 -312.307 271.254 -313.134 271.24 C-318.774 271.113 -318.774 271.113 -321 270 C-332.219 268.612 -342.286 272.788 -351.809 278.305 C-355.832 280.442 -359.975 282.149 -364.188 283.875 C-373.019 287.521 -381.552 291.539 -390 296 C-390.801 296.422 -391.602 296.844 -392.428 297.278 C-403.109 302.937 -413.224 308.873 -423 316 C-424.147 316.801 -425.295 317.599 -426.445 318.395 C-434.713 324.141 -442.457 330.333 -450 337 C-450.572 337.503 -451.143 338.006 -451.732 338.524 C-453.433 340.029 -455.125 341.543 -456.812 343.062 C-457.335 343.528 -457.857 343.993 -458.395 344.472 C-459.636 345.606 -460.824 346.799 -462 348 C-462 348.66 -462 349.32 -462 350 C-462.66 350 -463.32 350 -464 350 C-465.417 351.549 -466.758 353.168 -468.062 354.812 C-468.465 355.317 -468.465 355.317 -470.504 357.871 C-470.712 358.133 -470.712 358.133 -471.762 359.457 C-473.637 361.794 -475.575 364.078 -477.5 366.375 C-480.853 370.486 -484.049 374.68 -487.125 379 C-487.508 379.536 -487.508 379.536 -489.445 382.25 C-489.958 383.158 -490.471 384.065 -491 385 C-490.835 385.495 -490.835 385.495 -490 388 C-489.126 387.674 -488.252 387.348 -487.352 387.012 C-469.677 380.731 -451.62 378.884 -432.926 378.762 C-431.695 378.752 -430.464 378.742 -429.196 378.732 C-425.235 378.708 -421.274 378.695 -417.312 378.688 C-416.64 378.686 -415.968 378.684 -415.276 378.683 C-390.658 378.633 -367.256 380.035 -343.143 385.324 C-339.502 386.107 -335.859 386.752 -332.188 387.375 C-304.753 392.369 -280.86 405.002 -257.14 419.171 C-249.873 423.509 -242.517 427.654 -235.102 431.73 C-231.906 433.489 -228.743 435.295 -225.59 437.129 C-212.939 444.476 -199.709 450.641 -186.508 456.924 C-180.808 459.641 -175.137 462.405 -169.5 465.25 C-143.533 478.306 -117.359 488.347 -88 490 C-87.571 490.027 -87.571 490.027 -85.398 490.164 C-77.463 490.428 -69.855 488.932 -62.109 487.406 C-60.182 487.035 -58.248 486.705 -56.312 486.379 C-47.662 484.852 -39.59 482.357 -31.319 479.425 C-26.498 477.733 -22.071 476.594 -17 476 C-16.34 475.67 -15.68 475.34 -15 475 C-15.675 478.917 -17.575 481.843 -19.562 485.25 C-23.319 492.006 -25.98 498.993 -28.438 506.312 C-28.608 506.813 -28.608 506.813 -29.473 509.347 C-34.936 526.146 -36.921 552.305 -29.777 568.828 C-28.302 571.644 -26.703 574.316 -25 577 C-24.426 577.94 -23.853 578.879 -23.262 579.848 C-15.765 591.931 -15.765 591.931 -12 596 C-11.34 596 -10.68 596 -10 596 C-9.762 596.552 -9.523 597.103 -9.277 597.672 C-7.697 600.552 -5.724 602.774 -3.562 605.25 C1.232 610.806 5.328 616.715 9.244 622.919 C10.555 624.922 10.555 624.922 13 628 C14.32 628 15.64 628 17 628 C17.988 625.068 18.959 622.136 19.859 619.176 C24.612 603.896 33.711 592.222 43.496 579.836 C47.625 574.527 51.234 569.153 54.438 563.25 C54.768 562.648 55.098 562.046 55.438 561.426 C59.674 553.319 60.505 545.008 61 536 C61.066 535.136 61.131 534.273 61.199 533.383 C61.927 516.876 55.559 494.585 44.508 482.348 C43.376 481.194 42.194 480.089 41 479 C41.33 478.34 41.66 477.68 42 477 C42.866 477.433 43.733 477.866 44.625 478.312 C49.847 480.543 55.364 481.454 60.908 482.569 C64.804 483.372 68.682 484.254 72.562 485.125 C74.064 485.462 75.565 485.797 77.066 486.133 C77.705 486.276 78.344 486.419 79.002 486.567 C79.661 486.71 80.321 486.853 81 487 C81.753 487.178 82.506 487.356 83.282 487.539 C104.349 491.111 128.307 488.038 149 484 C149.976 483.818 150.953 483.636 151.959 483.449 C185.263 477.175 219.621 465.761 248.188 447.169 C250.299 445.807 252.43 444.477 254.562 443.148 C276.512 429.452 276.512 429.452 284.605 422.887 C286.684 421.249 288.599 420.021 290.938 418.812 C295.052 416.594 298.965 414.119 302.875 411.562 C318.708 401.275 335.81 393.129 354 388 C355.31 387.615 356.62 387.23 357.93 386.844 C399.54 374.741 441.158 375.224 484 377 C484 373 484 373 481.648 370.59 C480.568 369.693 479.476 368.81 478.375 367.938 C477.791 367.459 477.207 366.981 476.605 366.488 C471.871 362.632 467.054 358.875 462.234 355.127 C458.239 352.011 454.348 348.795 450.5 345.5 C445.579 341.289 440.555 337.24 435.439 333.268 C432.283 330.812 429.163 328.324 426.086 325.77 C417.409 318.571 408.588 311.942 399 306 C398.558 305.725 398.558 305.725 396.32 304.332 C356.147 280.992 298.426 271.539 253.078 282.408 C243.141 285.24 231.734 289.984 225 298 C224.09 301.03 224.09 301.03 223.508 304.574 C223.281 305.873 223.055 307.172 222.822 308.51 C222.709 309.193 222.596 309.875 222.479 310.578 C218.881 332.012 212.302 348.399 201 367 C200.335 368.119 199.67 369.238 198.984 370.391 C187.265 389.559 170.528 406.31 152.643 419.763 C151.174 420.869 149.717 421.992 148.262 423.117 C117.062 446.694 80.51 456.526 42 459 C41.496 459.034 41.496 459.034 38.944 459.205 C33.965 459.532 28.987 459.804 24 460 C25 457 25 457 26.729 455.875 C29.275 454.894 31.635 454.418 34.332 454 C35.37 453.836 36.408 453.673 37.478 453.504 C38.578 453.338 39.679 453.171 40.812 453 C41.944 452.823 43.075 452.645 44.241 452.463 C50.11 451.552 55.975 450.743 61.875 450.062 C70.805 448.907 79.378 446.536 88 444 C88.773 443.773 89.546 443.546 90.343 443.312 C100.865 440.159 110.583 436.121 120.26 430.929 C121.812 430.1 123.38 429.302 124.949 428.508 C148.082 416.553 169.223 397.565 185 377 C185.675 376.13 186.351 375.26 187.047 374.363 C191.959 367.842 196.08 360.983 199.987 353.833 C201.002 351.997 202.05 350.184 203.105 348.371 C212.89 331.285 215.379 313.013 218.37 293.795 C218.909 290.546 219.517 287.321 220.162 284.092 C221.767 275.993 222.674 267.979 223.279 259.749 C224.998 236.746 228.5 214.464 234.218 192.101 C235.01 188.96 235.764 185.813 236.508 182.66 C242.556 157.273 242.556 157.273 248.695 145.844 C250.033 142.928 250.272 141.708 249.688 138.625 C249.461 137.429 249.234 136.233 249 135 C249.755 135.092 250.511 135.183 251.289 135.277 C254 135 254 135 255.773 133.129 C256.302 132.282 256.83 131.435 257.375 130.562 C260.67 125.486 264.236 120.736 268 116 C267.34 114.68 266.68 113.36 266 112 C251.904 113.212 238.048 115.117 224.125 117.625 C223.153 117.799 222.181 117.972 221.179 118.151 C183.714 124.882 148.339 134.552 119 160 C118.476 160.45 117.952 160.9 117.413 161.364 C109.153 168.509 102.347 176.117 96 185 C96 174.735 107.872 165.16 114.551 158.43 C114.955 158.029 114.955 158.029 117 156 C117.663 155.328 118.325 154.657 119.008 153.965 C125.271 147.968 132.165 143.538 139.575 139.074 C140.375 138.588 141.175 138.102 142 137.602 C142.722 137.172 143.444 136.742 144.188 136.299 C150.335 131.892 150.437 121.379 151.613 114.46 C154.812 94.111 143.841 78.497 133.168 62.203 C129.545 56.505 127.236 50.677 125.178 44.267 C123.494 39.307 123.494 39.307 121.137 37.844 C118.08 38.067 116.448 39.321 113.938 41.062 C106.278 46.186 98.485 50.411 90 54 C73.282 61.464 53.126 71.056 44 88 C42.849 92.59 42.364 95.447 44.633 99.656 C45.445 100.95 46.277 102.23 47.125 103.5 C48.058 104.991 48.986 106.485 49.91 107.98 C50.41 108.783 50.911 109.585 51.426 110.412 C63.404 130.112 72.852 150.803 80.76 172.414 C82.838 178.055 85.051 183.536 87.688 188.938 C91.46 196.761 94.311 204.755 97 213 C97.128 213.387 97.128 213.387 97.778 215.348 C109.899 252.274 112.692 293.003 104 331 C103.673 332.977 103.36 334.956 103.062 336.938 C101.844 344.41 99.963 351.696 98 359 C97.908 359.346 97.908 359.346 97.441 361.1 C92.847 378.161 87.084 393.095 76 407 C75.38 407.791 74.76 408.583 74.121 409.398 C69.989 414.404 65.21 418.169 60 422 C59.575 422.327 59.575 422.327 57.426 423.98 C51.183 428.76 44.787 433.291 38.312 437.75 C37.921 438.021 37.921 438.021 35.938 439.395 C21.241 449.443 21.241 449.443 14 450 C15.37 446.839 15.989 446.007 19 444 C18.856 443.423 18.711 442.845 18.562 442.25 C18.377 441.507 18.191 440.765 18 440 C17.768 439.381 17.536 438.763 17.297 438.125 C16.881 435.145 17.919 434.131 19.688 431.75 C21.723 428.982 23.413 426.255 24.91 423.172 C26.908 419.076 29.269 415.316 31.75 411.5 C36.376 404.238 40.291 396.775 44.019 389.022 C45.365 386.248 46.757 383.498 48.148 380.747 C49.783 377.507 51.393 374.254 53 371 C53.463 370.071 53.926 369.141 54.402 368.184 C77.552 319.74 73.37 255.766 56 206 C55.499 204.46 54.999 202.92 54.5 201.379 C45.036 172.682 32.913 144.121 19.097 117.247 C17.07 113.268 15.206 109.245 13.418 105.152 C12.975 104.145 12.532 103.137 12.076 102.099 C11.205 100.104 10.346 98.103 9.5 96.096 C9.103 95.189 8.706 94.282 8.297 93.348 C7.95 92.533 7.603 91.718 7.245 90.879 C6 89 6 89 3.856 88.228 C3.244 88.153 2.631 88.078 2 88 C1.732 88.681 1.464 89.361 1.188 90.062 C-1.134 95.805 -3.635 101.414 -6.438 106.938 C-15.184 124.193 -23.685 141.612 -31.406 159.352 C-32.749 162.424 -34.14 165.464 -35.562 168.5 C-40.712 179.868 -45.006 191.537 -48.75 203.438 C-48.891 203.871 -48.891 203.871 -49.603 206.065 C-54.176 221.037 -55.506 236.27 -55.391 251.852 C-55.375 254.434 -55.391 257.014 -55.41 259.596 C-55.433 276.404 -52.938 292.576 -48.875 308.875 C-48.579 310.081 -48.282 311.287 -47.977 312.53 C-42.015 336.306 -35.332 360.082 -24.07 381.934 C-21.941 386.075 -19.963 390.278 -18 394.5 C-12.309 406.671 -6.425 418.605 0.531 430.109 C2 433 2 433 2 437 C0.266 436.879 0.266 436.879 -2 436 C-3.603 433.996 -4.922 432.113 -6.25 429.938 C-6.641 429.312 -7.033 428.686 -7.436 428.042 C-10.964 422.288 -13.97 416.315 -16.91 410.246 C-18.721 406.522 -20.651 402.873 -22.613 399.227 C-31.265 383.106 -38.941 366.718 -44.314 349.207 C-45.012 346.963 -45.743 344.733 -46.484 342.504 C-62.645 293.5 -69.054 240.422 -51 191 C-50.625 189.97 -50.251 188.94 -49.865 187.879 C-45.479 175.936 -40.957 164.233 -35.012 152.974 C-32.758 148.576 -30.681 144.089 -28.562 139.625 C-16.622 114.588 -16.622 114.588 -11.438 106 C-7.913 100.113 -5.237 93.973 -2.578 87.664 C-1.161 84.375 0.363 81.185 2 78 C2.66 78 3.32 78 4 78 C4.562 79.155 5.124 80.31 5.703 81.5 C7.852 85.798 10.265 89.891 12.75 94 C16.455 100.211 19.863 106.494 23.035 112.992 C25.022 117.061 27.092 121.067 29.251 125.048 C39.687 144.333 47.945 164.631 56 185 C56.352 185.883 56.704 186.766 57.067 187.676 C78.792 242.513 85.886 313.095 62.107 368.17 C58.67 375.914 54.924 383.493 51 391 C50.51 391.949 50.02 392.898 49.516 393.875 C46.542 399.488 43.276 404.911 39.938 410.312 C39.526 410.983 39.114 411.653 38.69 412.344 C36.755 415.434 34.789 418.334 32.402 421.094 C29.99 424.012 28.313 426.807 26.625 430.188 C26.102 431.212 25.578 432.237 25.039 433.293 C24 436 24 436 25 439 C26.839 437.884 28.671 436.757 30.5 435.625 C31.521 434.999 32.542 434.372 33.594 433.727 C34.388 433.157 35.182 432.587 36 432 C36 431.34 36 430.68 36 430 C36.521 429.767 37.042 429.533 37.578 429.293 C40.823 427.561 43.768 425.453 46.75 423.312 C47.06 423.091 47.06 423.091 48.63 421.969 C52.807 418.95 56.758 415.778 60.547 412.277 C62 411 62 411 64 410 C64 409.34 64 408.68 64 408 C64.66 408 65.32 408 66 408 C67.675 406.078 69.219 404.157 70.75 402.125 C71.168 401.589 71.585 401.053 72.016 400.5 C78.864 391.522 83.384 382.313 87 371.625 C87.213 370.999 87.427 370.373 87.647 369.728 C92.275 356.059 95.515 342.217 98 328 C98.209 326.814 98.418 325.628 98.633 324.406 C106.758 276.685 99.896 230.605 79.609 186.77 C76.835 180.75 74.424 174.605 72.009 168.434 C65.432 151.676 58.332 135.425 49.135 119.919 C46.856 116.065 44.619 112.187 42.375 108.312 C41.899 107.491 41.423 106.669 40.933 105.823 C37.526 99.932 34.156 94.031 31 88 C30.705 87.437 30.705 87.437 29.215 84.59 C20.457 67.596 13.13 50.041 6.867 31.985 C6.519 30.984 6.171 29.984 5.812 28.953 C5.51 28.068 5.207 27.183 4.895 26.271 C4 24 4 24 2 21 C1.01 21 0.02 21 -1 21 Z M259 173.438 C258.653 173.617 258.653 173.617 256.896 174.526 C247.199 179.78 242.572 185.02 239.183 195.534 C238.367 198.301 237.636 201.076 236.938 203.875 C236.68 204.904 236.423 205.934 236.157 206.994 C233.495 218.229 232.341 229.559 231.284 241.037 C230.911 244.931 230.429 248.807 229.938 252.688 C229.096 259.781 228.431 266.884 227.812 274 C227.716 275.071 227.62 276.142 227.521 277.245 C227.438 278.237 227.355 279.228 227.27 280.25 C227.193 281.142 227.117 282.034 227.038 282.953 C227.032 283.291 227.032 283.291 227 285 C227.33 285.33 227.66 285.66 228 286 C232.854 285.587 237.235 284.393 241.875 282.957 C245.843 281.742 249.822 280.577 253.812 279.438 C254.523 279.228 255.233 279.018 255.964 278.802 C269.511 274.961 282.679 274.684 296.665 274.739 C299.861 274.75 303.057 274.739 306.254 274.727 C316.295 274.721 326.064 274.925 335.981 276.571 C343.798 277.681 343.798 277.681 347.02 275.855 C364.816 259.299 375.383 239.208 376.344 214.703 C376.402 212.552 376.454 210.401 376.5 208.25 C376.831 197.066 377.694 186.219 379.688 175.199 C379.739 174.671 379.739 174.671 380 172 C378 170 378 170 376.109 169.84 C375.331 169.872 374.552 169.904 373.75 169.938 C362.855 170.109 352.84 168.894 342.332 166.121 C313.184 158.469 286.221 159.302 259 173.438 Z M-410 412 C-410 412.66 -410 413.32 -410 414 C-410.562 414.245 -411.124 414.49 -411.703 414.742 C-422.282 420.535 -431.227 431.895 -439 441 C-439.812 441.923 -440.624 442.846 -441.461 443.797 C-448.977 452.407 -455.618 461.525 -462 471 C-462.388 471.572 -462.776 472.144 -463.176 472.734 C-477.015 493.357 -484.249 516.528 -487 541 C-485.188 541.625 -485.188 541.625 -483 542 C-482.505 541.67 -482.505 541.67 -480 540 C-480 539.34 -480 538.68 -480 538 C-479.726 537.866 -479.726 537.866 -478.34 537.188 C-476.688 536.349 -475.056 535.47 -473.441 534.562 C-460.833 527.719 -448.013 527.391 -434 528 C-432.906 528.045 -431.811 528.09 -430.684 528.137 C-413.839 529.728 -397.136 537.685 -381.984 544.817 C-359.59 555.343 -335.289 563.342 -311 568 C-310.165 568.175 -309.33 568.351 -308.47 568.531 C-295.366 571.159 -281.947 571.235 -268.625 571.25 C-267.905 571.251 -267.185 571.253 -266.443 571.254 C-255.673 571.25 -245.48 570.685 -235 568 C-233.955 567.76 -232.909 567.52 -231.832 567.273 C-221.818 564.814 -214.246 560.083 -206 554 C-205.358 553.585 -204.716 553.17 -204.055 552.742 C-199.062 549.182 -197.084 544.34 -194.688 538.884 C-184.957 516.88 -166.582 503.161 -144.949 493.879 C-142.506 492.777 -140.25 491.452 -138 490 C-138.33 489.01 -138.66 488.02 -139 487 C-141.465 485.816 -141.465 485.816 -144.938 484.562 C-162.074 478.082 -178.599 469.95 -194.723 461.281 C-198.628 459.182 -202.583 457.203 -206.562 455.25 C-226.545 445.347 -245.821 434.285 -264.939 422.831 C-272.242 418.463 -279.575 414.156 -287 410 C-287.648 409.635 -288.297 409.269 -288.965 408.893 C-326.268 388.173 -375.408 381.828 -410 412 Z M325 406 C324.315 406.384 323.631 406.768 322.925 407.164 C312.631 412.968 302.737 419.31 293 426 C292.719 426.193 292.719 426.193 291.298 427.168 C286.502 430.465 281.722 433.784 276.969 437.141 C259.37 449.496 240.931 461.737 221 470 C220.283 470.298 219.567 470.595 218.828 470.902 C201.92 477.887 185.212 483.403 167.369 487.502 C166.189 487.782 165.009 488.063 163.793 488.352 C162.726 488.597 161.659 488.843 160.559 489.096 C158 490 158 490 156 493 C160.588 495.911 165.211 498.694 169.938 501.375 C175.35 504.519 180.167 508.04 185 512 C185.859 512.674 186.717 513.348 187.602 514.043 C191.138 516.823 194.54 519.529 197.688 522.75 C211.787 536.468 235.741 534.487 253.777 534.254 C262.147 534.039 269.873 533.019 278 531 C279.31 530.695 280.62 530.391 281.93 530.086 C300.485 525.494 314.771 516.503 329.903 505.225 C353.722 487.526 377.389 477.948 407.273 482.32 C412.589 483.29 417.803 484.524 423 486 C423 486.33 423 486.66 423 487 C421.846 486.99 420.692 486.979 419.503 486.968 C415.173 486.932 410.844 486.909 406.514 486.89 C404.649 486.88 402.785 486.867 400.92 486.849 C372.449 486.59 353.75 495.529 331.25 512.891 C306.427 531.956 281.641 540.216 250.438 540.188 C249.732 540.189 249.026 540.19 248.298 540.191 C238.691 540.195 229.296 539.821 219.789 538.34 C217 538 217 538 215 539 C215.619 542.501 217.001 544.614 219.125 547.438 C222.732 552.412 225.508 557.615 228.227 563.117 C231.41 568.292 234.859 570.293 240.736 571.725 C241.421 571.877 242.107 572.03 242.812 572.188 C243.486 572.352 244.16 572.516 244.854 572.686 C265.688 577.61 287.67 576.25 308 570 C309.132 569.678 310.264 569.355 311.43 569.023 C324.817 564.94 337.133 557.928 349.5 551.5 C375.581 537.945 401.337 525.39 431 523 C431.409 522.966 431.409 522.966 433.478 522.792 C450.644 521.436 467.398 522.092 484 527 C485.332 527.34 486.665 527.675 488 528 C489.216 523.824 488.851 521.872 486.789 518.078 C486.54 517.611 486.54 517.611 485.279 515.247 C484.733 514.258 484.187 513.269 483.625 512.25 C483.071 511.222 482.518 510.195 481.947 509.136 C480.826 507.054 479.699 504.975 478.567 502.898 C477.219 500.405 475.905 497.9 474.617 495.375 C462.13 470.95 446.039 445.536 424.895 427.668 C422.25 425.34 420.2 422.75 418 420 C406.927 408.294 395.792 399.796 380.414 394.828 C376.903 393.624 373.49 392.2 370.066 390.77 C358.35 386.406 335.498 400.021 325 406 Z M60 493 C59 495 59 495 60.109 498.457 C60.652 499.911 61.199 501.362 61.75 502.812 C68.507 521.291 72.55 541.256 64.24 559.91 C61.9 564.835 59.539 569.371 56.176 573.68 C54 577 54 577 53.766 579.715 C55.593 583.097 58.354 584.128 61.75 585.562 C62.352 585.84 62.954 586.118 63.574 586.404 C74.014 591.048 84.912 593.658 96.188 595.25 C96.778 595.333 96.778 595.333 99.769 595.756 C123.562 598.934 145.718 595.223 168.843 589.301 C191.814 583.431 208.562 583.09 230 595 C230.99 595.66 231.98 596.32 233 597 C233.99 597 234.98 597 236 597 C234.824 586.952 231.28 577.708 226.098 569.055 C224.985 566.972 224.409 565.09 223.812 562.812 C222.387 558.101 219.765 554.406 216.938 550.438 C216.489 549.805 216.041 549.172 215.579 548.521 C214.442 546.971 213.227 545.479 212 544 C211.34 544 210.68 544 210 544 C209.783 543.468 209.567 542.935 209.344 542.387 C207.506 539.122 205.046 536.529 202.5 533.812 C201.963 533.237 201.426 532.661 200.873 532.067 C196.168 527.076 191.226 522.444 186 518 C185.151 517.263 184.301 516.525 183.426 515.766 C171.911 506.016 156.701 493.616 141.125 493.688 C140.462 493.671 139.8 493.655 139.117 493.639 C134.204 493.634 129.726 494.441 124.93 495.5 C117.602 497.039 110.501 497.429 103.021 497.336 C101 497.313 98.981 497.316 96.961 497.322 C87.027 497.302 76.319 497.125 66.82 493.931 C64 493 64 493 60 493 Z " fill="#6B4A42" transform="translate(1236,120)"/>
<path d="M0 0 C4.002 1.902 6.317 4.957 8 9 C8.703 13.499 8.482 17.036 6.438 21.125 C-2.261 31.384 -11.406 37.092 -25.151 38.27 C-29.545 38.408 -33.933 38.437 -38.328 38.439 C-50.29 38.645 -60.689 42.369 -70 50 C-88.194 69.268 -88.329 97.019 -88 122 C-87.722 127.324 -87.221 132.62 -86.701 137.925 C-85.038 155.944 -85.75 175.579 -91 193 C-91.99 193 -92.98 193 -94 193 C-93.783 191.795 -93.567 190.589 -93.344 189.348 C-91.372 177.379 -90.711 165.665 -90.75 153.562 C-90.751 152.842 -90.752 152.122 -90.753 151.379 C-90.79 139.454 -90.79 139.454 -91.498 134.555 C-92.044 130.69 -92.196 126.891 -92.238 122.996 C-92.248 122.244 -92.258 121.491 -92.268 120.716 C-92.538 94.422 -92.574 67.492 -73.281 47.191 C-61.298 36.311 -46.546 32.257 -30.688 31.562 C-22.478 31.131 -15.056 30.704 -8 26 C-7.34 26 -6.68 26 -6 26 C-6 25.34 -6 24.68 -6 24 C-5.618 23.701 -5.618 23.701 -3.688 22.188 C-0.855 19.882 0.593 18.362 2 15 C1.796 9.078 1.796 9.078 -0.246 6.312 C-2.57 4.574 -4.058 4.599 -6.938 4.625 C-7.792 4.617 -8.647 4.61 -9.527 4.602 C-12.502 5.081 -13.846 5.912 -16 8 C-17.25 11.688 -17.25 11.688 -18 15 C-19.32 14.01 -20.64 13.02 -22 12 C-20.678 6.314 -18.557 4.322 -14 1 C-9.797 -1.102 -4.565 -0.536 0 0 Z " fill="#6B4A42" transform="translate(1456,254)"/>
<path d="M0 0 C5.611 1.926 11.202 4.536 14 10 C14.062 13.125 14.062 13.125 13 16 C10.625 17.938 10.625 17.938 8 19 C7.01 18.67 6.02 18.34 5 18 C5 17.01 5 16.02 5 15 C5.99 14.67 6.98 14.34 8 14 C7.687 10.951 7.525 9.448 5.145 7.418 C-3.071 3.083 -3.071 3.083 -8 4 C-10.375 5.5 -10.375 5.5 -12 7 C-11.424 14.199 -8.855 18.378 -3.812 23.375 C0.148 26.746 4.42 28.716 9.125 30.812 C29.807 40.044 46.186 54.94 55 76 C61.293 93.397 61.295 110.763 61 129 C60.34 129 59.68 129 59 129 C58.965 128.56 58.965 128.56 58.788 126.332 C54.129 69.041 54.129 69.041 30.625 49.031 C22.825 42.996 14.551 38.155 5.688 33.875 C-3.817 29.252 -12.25 24.475 -16 14 C-16.86 9.721 -16.525 6.823 -14.125 3.062 C-9.962 -0.978 -5.551 -0.688 0 0 Z " fill="#6B4A42" transform="translate(1069,265)"/>
<path d="M0 0 C6.681 2.972 10.876 7.459 14 14 C18.949 28.846 13.43 46.563 7 60 C3.576 66.646 -0.367 72.569 -5.062 78.375 C-10.195 84.725 -13.18 91.354 -16 99 C-16.99 99 -17.98 99 -19 99 C-16.577 88.571 -11.456 80.137 -5 71.688 C-0.225 65.256 2.975 58.377 6 51 C6.437 49.962 6.874 48.925 7.324 47.855 C9.779 41.147 10.397 34.769 10.5 27.688 C10.519 26.851 10.537 26.015 10.556 25.154 C10.49 18.692 8.958 13.36 4.624 8.437 C1.296 5.385 -1.511 4.094 -6 4 C-9.25 4.625 -9.25 4.625 -12 6 C-13.25 8.062 -13.25 8.062 -14 11 C-14.195 11.687 -14.389 12.374 -14.59 13.082 C-15.87 17.994 -16.373 22 -15 27 C-13.25 29.438 -13.25 29.438 -11 31 C-8.25 31.25 -8.25 31.25 -6 31 C-6 28.03 -6 25.06 -6 22 C-4.68 22 -3.36 22 -2 22 C-1 23 -1 23 -0.688 25.688 C-1.079 29.834 -2.345 31.828 -5 35 C-7.418 35.998 -8.567 36.14 -11.07 35.328 C-11.748 34.972 -12.426 34.617 -13.125 34.25 C-13.808 33.905 -14.491 33.559 -15.195 33.203 C-17.58 31.613 -18.778 29.875 -19.484 27.09 C-20.392 19.732 -19.727 13.215 -16.188 6.625 C-11.351 0.821 -7.588 -1.601 0 0 Z " fill="#6B4A42" transform="translate(1235,278)"/>
<path d="M0 0 C5.79 4.851 9.753 9.599 10.562 17.324 C10.836 23.037 10.287 26.521 6.312 30.938 C4.312 32.375 4.312 32.375 2.312 32.938 C0.062 32.562 0.062 32.562 -1.688 31.938 C-1.14 28.563 -0.633 26.855 1.312 23.938 C1.955 17.517 0.983 14.227 -2.688 8.938 C-5.662 7.45 -7.36 7.506 -10.688 7.938 C-21.569 13.617 -25.984 24.778 -29.642 35.817 C-35.295 55.888 -34.152 78.678 -34.25 99.312 C-34.273 103.332 -34.302 107.35 -34.342 111.369 C-34.366 113.836 -34.381 116.302 -34.385 118.769 C-34.486 129.918 -35.677 140.95 -39 151.625 C-39.218 152.341 -39.436 153.058 -39.661 153.796 C-41.528 159.759 -43.836 165.374 -46.688 170.938 C-47.212 171.996 -47.737 173.054 -48.277 174.145 C-52.035 181.465 -56.28 187.748 -61.688 193.938 C-62.364 194.724 -63.041 195.51 -63.738 196.32 C-89.446 225.553 -89.446 225.553 -100.688 226.938 C-100.096 223.746 -99.179 222.013 -97 219.625 C-96.377 218.938 -95.755 218.251 -95.113 217.543 C-91.351 213.502 -87.584 209.465 -83.813 205.433 C-75.435 196.469 -75.435 196.469 -71.688 191.938 C-70.91 191.012 -70.133 190.086 -69.332 189.133 C-51.557 167.401 -44.599 141.24 -44.512 113.535 C-44.501 112.131 -44.49 110.726 -44.477 109.321 C-44.426 103.415 -44.377 97.509 -44.362 91.603 C-44.162 26.873 -44.162 26.873 -25.188 7.062 C-18.073 0.404 -9.686 -3.829 0 0 Z " fill="#6B4A42" transform="translate(1427.6875,308.0625)"/>
<path d="M0 0 C18.312 17.116 20.018 46.087 22.562 69.562 C22.643 70.22 22.724 70.878 22.807 71.556 C23.564 77.875 23.907 84.188 24.211 90.543 C24.33 92.865 24.45 95.188 24.57 97.51 C24.755 101.125 24.937 104.741 25.109 108.357 C26.732 142.098 34.719 163.746 59.852 186.648 C61.084 187.729 62.324 188.8 63.574 189.859 C67.082 192.864 70.46 196.012 73.867 199.129 C76.886 201.855 79.973 204.491 83.102 207.09 C84.562 208.562 84.562 208.562 85.562 211.562 C83.867 212.234 83.867 212.234 81.562 212.562 C73.02 208.682 65.489 201.771 58.219 195.894 C56.73 194.697 55.225 193.521 53.719 192.348 C33.232 176.169 19.211 158.154 16.047 131.449 C15.126 122.8 14.526 114.122 13.879 105.449 C8.336 31.179 8.336 31.179 -4.438 10.562 C-4.779 9.847 -5.121 9.132 -5.473 8.395 C-6.752 5.965 -7.922 5.611 -10.438 4.562 C-10.912 4.294 -10.912 4.294 -13.312 2.938 C-17.631 1.037 -20.545 0.916 -25 2.438 C-29.238 6.132 -31.8 11.224 -32.855 16.75 C-33.081 22.26 -31.413 26.928 -28.125 31.312 C-25.727 33.089 -23.135 34.304 -20.438 35.562 C-21.438 38.562 -21.438 38.562 -23.438 39.562 C-27.454 39.82 -31.078 39.653 -34.293 37.074 C-40.325 30.118 -41.524 23.723 -41.438 14.562 C-39.988 6.396 -35.547 0.061 -29.438 -5.438 C-19.65 -11.752 -8.105 -6.602 0 0 Z " fill="#6B4A42" transform="translate(1096.4375,333.4375)"/>
<path d="M0 0 C3.565 0.204 5.019 1.016 7.812 3.312 C10.711 7.125 10.519 10.974 10.469 15.609 C9.197 24.809 5.464 32.473 1.062 40.562 C-2.551 47.28 -6.03 53.97 -9 61 C-9.33 61 -9.66 61 -10 61 C-10.823 52.978 -6.34 46.607 -2.65 39.806 C2.774 29.768 8.12 19.824 6 8 C3.562 5 3.562 5 1 3 C0.67 2.01 0.34 1.02 0 0 Z " fill="#6B4A42" transform="translate(1208,327)"/>
<path d="M0 0 C1.675 0.286 3.344 0.618 5 1 C6.125 7.75 6.125 7.75 5 10 C2.688 10.25 2.688 10.25 0 10 C-1.938 8.312 -1.938 8.312 -3 6 C-2.332 3.607 -1.779 1.779 0 0 Z " fill="#6B4A42" transform="translate(1255,356)"/>
<path d="M0 0 C0.66 0.33 1.32 0.66 2 1 C1.794 1.804 1.588 2.609 1.375 3.438 C0.55 11.274 3.722 18.221 7 25.188 C13 38.133 13 38.133 13 44 C12.34 44 11.68 44 11 44 C10.779 43.441 10.557 42.883 10.329 42.307 C9.305 39.725 8.277 37.144 7.25 34.562 C7.076 34.123 7.076 34.123 6.195 31.9 C4.19 26.869 2.1 21.903 -0.177 16.988 C-2.142 12.242 -2.242 8.088 -2 3 C-1.34 2.01 -0.68 1.02 0 0 Z " fill="#6B4A42" transform="translate(1279,357)"/>
<path d="M0 0 C8.148 4.516 12.358 11.792 15 20.5 C15.901 24.207 16.163 27.688 16.188 31.5 C16.202 32.511 16.216 33.521 16.23 34.562 C15.911 38.63 14.751 41.46 12.375 44.75 C9.089 47.171 5.999 47.813 2 47.5 C-1.636 46.274 -4.286 44.286 -6.875 41.438 C-8.619 36.883 -9.278 32.375 -9 27.5 C-7.062 24.312 -7.062 24.312 -5 22.5 C-1.758 22.85 -0.385 23.062 1.812 25.562 C2.204 26.202 2.596 26.841 3 27.5 C0.108 28.326 -1.887 28.5 -5 28.5 C-5.324 33.145 -4.885 35.791 -2 39.5 C0.382 41.247 1.545 41.523 4.5 41.375 C7.748 40.238 9.011 39.341 11 36.5 C13.412 29.201 11.257 22.192 8 15.5 C4.956 11.041 1.809 7.501 -2.938 4.875 C-7.151 4.359 -10.914 4.211 -15 5.5 C-21.384 11.34 -22.476 18.263 -23 26.5 C-23.142 30.174 -23.095 33.825 -23 37.5 C-22.983 38.689 -22.966 39.877 -22.949 41.102 C-22.662 51.293 -20.896 60.992 -18.728 70.946 C-18.617 71.457 -18.617 71.457 -18.059 74.043 C-17.855 74.951 -17.652 75.858 -17.443 76.794 C-16.961 79.737 -16.926 82.522 -17 85.5 C-17.66 85.5 -18.32 85.5 -19 85.5 C-19.722 82.657 -20.436 79.812 -21.141 76.965 C-21.681 74.787 -22.231 72.612 -22.797 70.441 C-27.677 50.896 -31.772 24.439 -21.812 6 C-16.684 -1.393 -8.214 -3.539 0 0 Z " fill="#6B4A42" transform="translate(1263,383.5)"/>
<path d="M0 0 C0.66 0 1.32 0 2 0 C2.848 2.496 3.678 4.995 4.5 7.5 C4.738 8.196 4.977 8.892 5.223 9.609 C7.758 17.432 7.477 23.932 4.875 31.812 C4.648 32.51 4.42 33.207 4.186 33.925 C-0.979 49.174 -11.296 61.237 -22 73 C-22.33 72.01 -22.66 71.02 -23 70 C-22.031 68.273 -22.031 68.273 -20.5 66.375 C-20.22 66.019 -20.22 66.019 -18.805 64.219 C-17.649 62.798 -16.488 61.381 -15.32 59.969 C-5.121 47.372 2.543 33.536 2.336 17.008 C1.975 13.779 1.045 11.067 0 8 C-0.227 5.289 -0.094 2.729 0 0 Z " fill="#6B4A42" transform="translate(1277,454)"/>
<path d="M0 0 C0.821 0.157 1.642 0.314 2.488 0.475 C7.735 1.602 11.722 3.368 16.25 6.25 C15.92 7.24 15.59 8.23 15.25 9.25 C10.323 8.859 5.503 8.39 0.688 7.25 C-23.713 1.554 -44.899 7.663 -65.809 20.238 C-76.549 26.918 -86.352 34.494 -95.944 42.716 C-98.4 44.802 -100.919 46.804 -103.438 48.812 C-108.395 52.854 -113.068 57.17 -117.718 61.559 C-120.622 64.298 -123.552 67.004 -126.547 69.645 C-127.112 70.144 -127.678 70.644 -128.261 71.159 C-129.75 72.25 -129.75 72.25 -131.75 72.25 C-131.75 72.91 -131.75 73.57 -131.75 74.25 C-134.023 76.156 -136.301 77.933 -138.688 79.688 C-139.411 80.222 -140.135 80.757 -140.88 81.309 C-173.673 105.296 -212.894 125.571 -254.5 125.375 C-254.918 125.377 -254.918 125.377 -257.035 125.387 C-257.843 125.385 -258.652 125.384 -259.484 125.383 C-260.209 125.382 -260.933 125.381 -261.679 125.379 C-263.811 125.246 -265.699 124.832 -267.75 124.25 C-267.42 123.26 -267.09 122.27 -266.75 121.25 C-265.827 121.224 -264.904 121.198 -263.953 121.172 C-240.73 120.162 -216.732 114.286 -195.75 104.25 C-195.106 103.947 -194.461 103.643 -193.797 103.331 C-183.757 98.546 -174.151 93.186 -164.75 87.25 C-164.138 86.866 -163.526 86.482 -162.896 86.087 C-150.366 78.171 -138.9 68.948 -127.84 59.098 C-124.388 56.046 -120.875 53.065 -117.37 50.074 C-114.251 47.408 -111.148 44.727 -108.074 42.008 C-89.04 25.204 -65.961 6.494 -40.75 0.25 C-39.986 0.048 -39.221 -0.155 -38.434 -0.363 C-25.799 -3.199 -12.618 -2.451 0 0 Z " fill="#6B4A42" transform="translate(1613.75,459.75)"/>
<path d="M0 0 C0.671 0.118 1.343 0.237 2.035 0.358 C31.806 5.754 59.846 19.859 85.887 34.795 C87.862 35.921 89.848 37.02 91.844 38.109 C100.378 42.803 108.184 48.222 116 54 C117.276 54.934 118.552 55.868 119.828 56.801 C122.379 58.666 124.927 60.536 127.473 62.41 C130.511 64.645 133.566 66.856 136.625 69.062 C140.011 71.515 143.335 74.028 146.626 76.607 C166.867 92.411 188.544 103.123 213 111 C215 111.665 217.001 112.331 219 113 C219 113.99 219 114.98 219 116 C193.207 112.351 168.09 101.047 147 86 C146.422 85.59 145.844 85.18 145.248 84.757 C142.94 83.119 140.636 81.475 138.339 79.821 C133.936 76.649 129.48 73.562 125 70.5 C119.873 66.995 114.79 63.44 109.75 59.812 C100.143 52.92 90.473 46.511 80 41 C77.937 39.875 75.875 38.75 73.812 37.625 C71.544 36.411 69.273 35.203 67 34 C65.855 33.394 64.711 32.788 63.531 32.164 C55.09 27.784 46.442 23.96 37.688 20.25 C37.145 20.02 37.145 20.02 34.4 18.856 C25.03 14.931 15.681 11.117 5.75 8.875 C5.025 8.71 4.299 8.546 3.552 8.376 C-18.286 3.566 -41.621 2.611 -63 10 C-62.961 8.195 -62.961 8.195 -62 6 C-59.507 4.732 -57.248 3.775 -54.625 2.875 C-53.892 2.616 -53.159 2.358 -52.403 2.091 C-35.464 -3.723 -17.491 -3.174 0 0 Z " fill="#6B4A42" transform="translate(901,468)"/>
<path d="M0 0 C3 0.625 3 0.625 5.5 3.312 C7 6.625 7 6.625 6.438 9.375 C5 11.625 5 11.625 2 13.625 C-1.562 13.438 -1.562 13.438 -5 12.625 C-7.166 9.377 -7.552 8.394 -7 4.625 C-4.876 1.602 -3.63 0.756 0 0 Z " fill="#6B4A42" transform="translate(1243,583.375)"/>
<path d="M0 0 C-0.638 3.673 -1.659 6.963 -3 10.438 C-6.502 19.929 -6.79 28.324 -4.125 38 C-3.773 39.333 -3.422 40.667 -3.07 42 C-2.895 42.65 -2.72 43.299 -2.54 43.969 C-1.654 47.303 -0.83 50.652 0 54 C3 53 3 53 4.5 50.594 C10.723 37.758 13.026 27.24 13.562 13.062 C13.606 11.997 13.649 10.932 13.693 9.834 C13.799 7.223 13.901 4.611 14 2 C15.895 2.297 15.895 2.297 18 3 C23.636 13.854 24.144 29.613 20.5 41.25 C18.324 46.773 15.56 52.091 12.73 57.308 C9.84 62.761 8.917 67.522 9.125 73.75 C9 77 9 77 7.812 79 C6 80 6 80 3.562 80.25 C0.537 78.774 0.386 78.146 -0.871 75.141 C-1.214 74.328 -1.556 73.516 -1.909 72.679 C-2.089 72.237 -2.089 72.237 -3 70 C-3.373 69.093 -3.747 68.186 -4.132 67.251 C-5.315 64.341 -6.473 61.422 -7.625 58.5 C-8.019 57.519 -8.414 56.538 -8.82 55.527 C-14.886 40.139 -16.548 25.568 -10.387 9.953 C-5.713 0 -5.713 0 0 0 Z " fill="#6B4A42" transform="translate(1242,620)"/>
<path d="M0 0 C0.361 0.351 0.361 0.351 2.188 2.125 C2.188 2.785 2.188 3.445 2.188 4.125 C1.71 4.108 1.71 4.108 -0.707 4.02 C-16.752 3.684 -30.734 8.007 -42.812 19.125 C-47.6 24.336 -51.479 29.417 -53.812 36.125 C-52.637 36.084 -51.461 36.043 -50.25 36 C-45.842 35.986 -41.612 36.506 -37.25 37.125 C-22.461 39.168 -11.574 36.183 1.691 29.785 C12.467 24.668 12.467 24.668 17.25 25.938 C17.889 26.329 18.529 26.721 19.188 27.125 C17.835 32.215 14.738 34.342 10.5 37.062 C9.834 37.495 9.167 37.927 8.481 38.373 C-7.754 48.58 -21.919 50.021 -40.812 47.125 C-49.226 45.94 -56.445 45.38 -63.699 50.441 C-65.124 51.607 -66.477 52.858 -67.812 54.125 C-69.463 53.465 -71.112 52.805 -72.812 52.125 C-73.769 45.717 -70.555 42.02 -67 37.062 C-66.412 36.226 -65.824 35.39 -65.218 34.529 C-53.553 18.148 -23.606 -14.9 0 0 Z " fill="#6B4A42" transform="translate(1156.8125,637.875)"/>
<path d="M0 0 C7.759 5.709 13.674 12.869 16.215 22.238 C15.777 24.469 15.777 24.469 15.215 26.238 C12.718 27.164 11.643 27.432 9.172 26.312 C8.464 25.855 7.756 25.397 7.027 24.926 C-3.052 19.013 -11.984 19.976 -22.973 22.801 C-34.164 25.463 -45.44 25.749 -55.785 20.238 C-60.66 17.112 -65.565 13.789 -67.785 8.238 C-67.455 7.578 -67.125 6.918 -66.785 6.238 C-63.233 7.557 -60.168 9.147 -56.973 11.176 C-46.261 17.647 -38.477 18.289 -26.223 15.738 C-16.395 13.695 -5.629 12.868 4.215 15.238 C1.381 6.766 -6.027 1.893 -13.701 -2.043 C-28.266 -9.037 -42.75 -11.36 -58.785 -11.762 C-58.785 -12.752 -58.785 -13.742 -58.785 -14.762 C-39.244 -19.805 -16.272 -10.292 0 0 Z " fill="#6B4A42" transform="translate(1390.78515625,651.76171875)"/>
</svg>
